<svg xmlns="http://www.w3.org/2000/svg" viewBox="0 0 259 259" width="259" height="259">
  <style>
    svg {
      --fill-color: #cccccc;
      --stroke-color: #cccccc;
      --background-color: transparent;
      --occlusion-color: #1a1a1a;
    }
  </style>
  <g transform="translate(129.5, 129.5)"><g transform="translate(0, 0)"><g transform="translate(-117, -117)"><g transform="rotate(4050)"><path d="M 25 0 A 25 25 0 0 1 1.5308084989341915e-15 25 L 7.654042494670958e-16 12.5 A 12.5 12.5 0 0 0 12.5 0 Z" transform="translate(-12.5, -12.5)" fill="var(--fill-color, currentColor)" stroke="none"  /></g></g><g transform="translate(-91, -117)"><g transform="rotate(8190)"><path d="M 25 0 A 25 25 0 0 1 1.5308084989341915e-15 25 L 7.654042494670958e-16 12.5 A 12.5 12.5 0 0 0 12.5 0 Z" transform="translate(-12.5, -12.5)" fill="var(--fill-color, currentColor)" stroke="none"  /></g></g><g transform="translate(-65, -117)"><g transform="rotate(7560)"><path d="M 25 0 A 25 25 0 0 1 1.5308084989341915e-15 25 L 7.654042494670958e-16 12.5 A 12.5 12.5 0 0 0 12.5 0 Z" transform="translate(-12.5, -12.5)" fill="var(--fill-color, currentColor)" stroke="none"  /></g></g><g transform="translate(-39, -117)"><g transform="rotate(3330)"><path d="M 25 0 A 25 25 0 0 1 1.5308084989341915e-15 25 L 7.654042494670958e-16 12.5 A 12.5 12.5 0 0 0 12.5 0 Z" transform="translate(-12.5, -12.5)" fill="var(--fill-color, currentColor)" stroke="none"  /></g></g><g transform="translate(-13, -117)"><g transform="rotate(1440)"><path d="M 25 0 A 25 25 0 0 1 1.5308084989341915e-15 25 L 7.654042494670958e-16 12.5 A 12.5 12.5 0 0 0 12.5 0 Z" transform="translate(-12.5, -12.5)" fill="var(--fill-color, currentColor)" stroke="none"  /></g></g><g transform="translate(13, -117)"><g transform="rotate(5130)"><path d="M 25 0 A 25 25 0 0 1 1.5308084989341915e-15 25 L 7.654042494670958e-16 12.5 A 12.5 12.5 0 0 0 12.5 0 Z" transform="translate(-12.5, -12.5)" fill="var(--fill-color, currentColor)" stroke="none"  /></g></g><g transform="translate(39, -117)"><g transform="rotate(1350)"><path d="M 25 0 A 25 25 0 0 1 1.5308084989341915e-15 25 L 7.654042494670958e-16 12.5 A 12.5 12.5 0 0 0 12.5 0 Z" transform="translate(-12.5, -12.5)" fill="var(--fill-color, currentColor)" stroke="none"  /></g></g><g transform="translate(65, -117)"><g transform="rotate(5760)"><path d="M 25 0 A 25 25 0 0 1 1.5308084989341915e-15 25 L 7.654042494670958e-16 12.5 A 12.5 12.5 0 0 0 12.5 0 Z" transform="translate(-12.5, -12.5)" fill="var(--fill-color, currentColor)" stroke="none"  /></g></g><g transform="translate(91, -117)"><g transform="rotate(5940)"><path d="M 25 0 A 25 25 0 0 1 1.5308084989341915e-15 25 L 7.654042494670958e-16 12.5 A 12.5 12.5 0 0 0 12.5 0 Z" transform="translate(-12.5, -12.5)" fill="var(--fill-color, currentColor)" stroke="none"  /></g></g><g transform="translate(117, -117)"><g transform="rotate(6930)"><path d="M 25 0 A 25 25 0 0 1 1.5308084989341915e-15 25 L 7.654042494670958e-16 12.5 A 12.5 12.5 0 0 0 12.5 0 Z" transform="translate(-12.5, -12.5)" fill="var(--fill-color, currentColor)" stroke="none"  /></g></g><g transform="translate(-117, -91)"><g transform="rotate(450)"><path d="M 25 0 A 25 25 0 0 1 1.5308084989341915e-15 25 L 7.654042494670958e-16 12.5 A 12.5 12.5 0 0 0 12.5 0 Z" transform="translate(-12.5, -12.5)" fill="var(--fill-color, currentColor)" stroke="none"  /></g></g><g transform="translate(-91, -91)"><g transform="rotate(6390)"><path d="M 25 0 A 25 25 0 0 1 1.5308084989341915e-15 25 L 7.654042494670958e-16 12.5 A 12.5 12.5 0 0 0 12.5 0 Z" transform="translate(-12.5, -12.5)" fill="var(--fill-color, currentColor)" stroke="none"  /></g></g><g transform="translate(-65, -91)"><g transform="rotate(2430)"><path d="M 25 0 A 25 25 0 0 1 1.5308084989341915e-15 25 L 7.654042494670958e-16 12.5 A 12.5 12.5 0 0 0 12.5 0 Z" transform="translate(-12.5, -12.5)" fill="var(--fill-color, currentColor)" stroke="none"  /></g></g><g transform="translate(-39, -91)"><g transform="rotate(7200)"><path d="M 25 0 A 25 25 0 0 1 1.5308084989341915e-15 25 L 7.654042494670958e-16 12.5 A 12.5 12.5 0 0 0 12.5 0 Z" transform="translate(-12.5, -12.5)" fill="var(--fill-color, currentColor)" stroke="none"  /></g></g><g transform="translate(-13, -91)"><g transform="rotate(2610)"><path d="M 25 0 A 25 25 0 0 1 1.5308084989341915e-15 25 L 7.654042494670958e-16 12.5 A 12.5 12.5 0 0 0 12.5 0 Z" transform="translate(-12.5, -12.5)" fill="var(--fill-color, currentColor)" stroke="none"  /></g></g><g transform="translate(13, -91)"><g transform="rotate(2520)"><path d="M 25 0 A 25 25 0 0 1 1.5308084989341915e-15 25 L 7.654042494670958e-16 12.5 A 12.5 12.5 0 0 0 12.5 0 Z" transform="translate(-12.5, -12.5)" fill="var(--fill-color, currentColor)" stroke="none"  /></g></g><g transform="translate(39, -91)"><g transform="rotate(6570)"><path d="M 25 0 A 25 25 0 0 1 1.5308084989341915e-15 25 L 7.654042494670958e-16 12.5 A 12.5 12.5 0 0 0 12.5 0 Z" transform="translate(-12.5, -12.5)" fill="var(--fill-color, currentColor)" stroke="none"  /></g></g><g transform="translate(65, -91)"><g transform="rotate(1710)"><path d="M 25 0 A 25 25 0 0 1 1.5308084989341915e-15 25 L 7.654042494670958e-16 12.5 A 12.5 12.5 0 0 0 12.5 0 Z" transform="translate(-12.5, -12.5)" fill="var(--fill-color, currentColor)" stroke="none"  /></g></g><g transform="translate(91, -91)"><g transform="rotate(990)"><path d="M 25 0 A 25 25 0 0 1 1.5308084989341915e-15 25 L 7.654042494670958e-16 12.5 A 12.5 12.5 0 0 0 12.5 0 Z" transform="translate(-12.5, -12.5)" fill="var(--fill-color, currentColor)" stroke="none"  /></g></g><g transform="translate(117, -91)"><g transform="rotate(8100)"><path d="M 25 0 A 25 25 0 0 1 1.5308084989341915e-15 25 L 7.654042494670958e-16 12.5 A 12.5 12.5 0 0 0 12.5 0 Z" transform="translate(-12.5, -12.5)" fill="var(--fill-color, currentColor)" stroke="none"  /></g></g><g transform="translate(-117, -65)"><g transform="rotate(7650)"><path d="M 25 0 A 25 25 0 0 1 1.5308084989341915e-15 25 L 7.654042494670958e-16 12.5 A 12.5 12.5 0 0 0 12.5 0 Z" transform="translate(-12.5, -12.5)" fill="var(--fill-color, currentColor)" stroke="none"  /></g></g><g transform="translate(-91, -65)"><g transform="rotate(3150)"><path d="M 25 0 A 25 25 0 0 1 1.5308084989341915e-15 25 L 7.654042494670958e-16 12.5 A 12.5 12.5 0 0 0 12.5 0 Z" transform="translate(-12.5, -12.5)" fill="var(--fill-color, currentColor)" stroke="none"  /></g></g><g transform="translate(-65, -65)"><g transform="rotate(7020)"><path d="M 25 0 A 25 25 0 0 1 1.5308084989341915e-15 25 L 7.654042494670958e-16 12.5 A 12.5 12.5 0 0 0 12.5 0 Z" transform="translate(-12.5, -12.5)" fill="var(--fill-color, currentColor)" stroke="none"  /></g></g><g transform="translate(-39, -65)"><g transform="rotate(5040)"><path d="M 25 0 A 25 25 0 0 1 1.5308084989341915e-15 25 L 7.654042494670958e-16 12.5 A 12.5 12.5 0 0 0 12.5 0 Z" transform="translate(-12.5, -12.5)" fill="var(--fill-color, currentColor)" stroke="none"  /></g></g><g transform="translate(-13, -65)"><g transform="rotate(7380)"><path d="M 25 0 A 25 25 0 0 1 1.5308084989341915e-15 25 L 7.654042494670958e-16 12.5 A 12.5 12.5 0 0 0 12.5 0 Z" transform="translate(-12.5, -12.5)" fill="var(--fill-color, currentColor)" stroke="none"  /></g></g><g transform="translate(13, -65)"><g transform="rotate(7830)"><path d="M 25 0 A 25 25 0 0 1 1.5308084989341915e-15 25 L 7.654042494670958e-16 12.5 A 12.5 12.5 0 0 0 12.5 0 Z" transform="translate(-12.5, -12.5)" fill="var(--fill-color, currentColor)" stroke="none"  /></g></g><g transform="translate(39, -65)"><g transform="rotate(4770)"><path d="M 25 0 A 25 25 0 0 1 1.5308084989341915e-15 25 L 7.654042494670958e-16 12.5 A 12.5 12.5 0 0 0 12.5 0 Z" transform="translate(-12.5, -12.5)" fill="var(--fill-color, currentColor)" stroke="none"  /></g></g><g transform="translate(65, -65)"><g transform="rotate(5490)"><path d="M 25 0 A 25 25 0 0 1 1.5308084989341915e-15 25 L 7.654042494670958e-16 12.5 A 12.5 12.5 0 0 0 12.5 0 Z" transform="translate(-12.5, -12.5)" fill="var(--fill-color, currentColor)" stroke="none"  /></g></g><g transform="translate(91, -65)"><g transform="rotate(1080)"><path d="M 25 0 A 25 25 0 0 1 1.5308084989341915e-15 25 L 7.654042494670958e-16 12.5 A 12.5 12.5 0 0 0 12.5 0 Z" transform="translate(-12.5, -12.5)" fill="var(--fill-color, currentColor)" stroke="none"  /></g></g><g transform="translate(117, -65)"><g transform="rotate(540)"><path d="M 25 0 A 25 25 0 0 1 1.5308084989341915e-15 25 L 7.654042494670958e-16 12.5 A 12.5 12.5 0 0 0 12.5 0 Z" transform="translate(-12.5, -12.5)" fill="var(--fill-color, currentColor)" stroke="none"  /></g></g><g transform="translate(-117, -39)"><g transform="rotate(8730)"><path d="M 25 0 A 25 25 0 0 1 1.5308084989341915e-15 25 L 7.654042494670958e-16 12.5 A 12.5 12.5 0 0 0 12.5 0 Z" transform="translate(-12.5, -12.5)" fill="var(--fill-color, currentColor)" stroke="none"  /></g></g><g transform="translate(-91, -39)"><g transform="rotate(4950)"><path d="M 25 0 A 25 25 0 0 1 1.5308084989341915e-15 25 L 7.654042494670958e-16 12.5 A 12.5 12.5 0 0 0 12.5 0 Z" transform="translate(-12.5, -12.5)" fill="var(--fill-color, currentColor)" stroke="none"  /></g></g><g transform="translate(-65, -39)"><g transform="rotate(5400)"><path d="M 25 0 A 25 25 0 0 1 1.5308084989341915e-15 25 L 7.654042494670958e-16 12.5 A 12.5 12.5 0 0 0 12.5 0 Z" transform="translate(-12.5, -12.5)" fill="var(--fill-color, currentColor)" stroke="none"  /></g></g><g transform="translate(-39, -39)"><g transform="rotate(3690)"><path d="M 25 0 A 25 25 0 0 1 1.5308084989341915e-15 25 L 7.654042494670958e-16 12.5 A 12.5 12.5 0 0 0 12.5 0 Z" transform="translate(-12.5, -12.5)" fill="var(--fill-color, currentColor)" stroke="none"  /></g></g><g transform="translate(-13, -39)"><g transform="rotate(180)"><path d="M 25 0 A 25 25 0 0 1 1.5308084989341915e-15 25 L 7.654042494670958e-16 12.5 A 12.5 12.5 0 0 0 12.5 0 Z" transform="translate(-12.5, -12.5)" fill="var(--fill-color, currentColor)" stroke="none"  /></g></g><g transform="translate(13, -39)"><g transform="rotate(810)"><path d="M 25 0 A 25 25 0 0 1 1.5308084989341915e-15 25 L 7.654042494670958e-16 12.5 A 12.5 12.5 0 0 0 12.5 0 Z" transform="translate(-12.5, -12.5)" fill="var(--fill-color, currentColor)" stroke="none"  /></g></g><g transform="translate(39, -39)"><g transform="rotate(7290)"><path d="M 25 0 A 25 25 0 0 1 1.5308084989341915e-15 25 L 7.654042494670958e-16 12.5 A 12.5 12.5 0 0 0 12.5 0 Z" transform="translate(-12.5, -12.5)" fill="var(--fill-color, currentColor)" stroke="none"  /></g></g><g transform="translate(65, -39)"><g transform="rotate(3420)"><path d="M 25 0 A 25 25 0 0 1 1.5308084989341915e-15 25 L 7.654042494670958e-16 12.5 A 12.5 12.5 0 0 0 12.5 0 Z" transform="translate(-12.5, -12.5)" fill="var(--fill-color, currentColor)" stroke="none"  /></g></g><g transform="translate(91, -39)"><g transform="rotate(3600)"><path d="M 25 0 A 25 25 0 0 1 1.5308084989341915e-15 25 L 7.654042494670958e-16 12.5 A 12.5 12.5 0 0 0 12.5 0 Z" transform="translate(-12.5, -12.5)" fill="var(--fill-color, currentColor)" stroke="none"  /></g></g><g transform="translate(117, -39)"><g transform="rotate(2880)"><path d="M 25 0 A 25 25 0 0 1 1.5308084989341915e-15 25 L 7.654042494670958e-16 12.5 A 12.5 12.5 0 0 0 12.5 0 Z" transform="translate(-12.5, -12.5)" fill="var(--fill-color, currentColor)" stroke="none"  /></g></g><g transform="translate(-117, -13)"><g transform="rotate(8370)"><path d="M 25 0 A 25 25 0 0 1 1.5308084989341915e-15 25 L 7.654042494670958e-16 12.5 A 12.5 12.5 0 0 0 12.5 0 Z" transform="translate(-12.5, -12.5)" fill="var(--fill-color, currentColor)" stroke="none"  /></g></g><g transform="translate(-91, -13)"><g transform="rotate(2700)"><path d="M 25 0 A 25 25 0 0 1 1.5308084989341915e-15 25 L 7.654042494670958e-16 12.5 A 12.5 12.5 0 0 0 12.5 0 Z" transform="translate(-12.5, -12.5)" fill="var(--fill-color, currentColor)" stroke="none"  /></g></g><g transform="translate(-65, -13)"><g transform="rotate(2340)"><path d="M 25 0 A 25 25 0 0 1 1.5308084989341915e-15 25 L 7.654042494670958e-16 12.5 A 12.5 12.5 0 0 0 12.5 0 Z" transform="translate(-12.5, -12.5)" fill="var(--fill-color, currentColor)" stroke="none"  /></g></g><g transform="translate(-39, -13)"><g transform="rotate(6750)"><path d="M 25 0 A 25 25 0 0 1 1.5308084989341915e-15 25 L 7.654042494670958e-16 12.5 A 12.5 12.5 0 0 0 12.5 0 Z" transform="translate(-12.5, -12.5)" fill="var(--fill-color, currentColor)" stroke="none"  /></g></g><g transform="translate(-13, -13)"><g transform="rotate(900)"><path d="M 25 0 A 25 25 0 0 1 1.5308084989341915e-15 25 L 7.654042494670958e-16 12.5 A 12.5 12.5 0 0 0 12.5 0 Z" transform="translate(-12.5, -12.5)" fill="var(--fill-color, currentColor)" stroke="none"  /></g></g><g transform="translate(13, -13)"><g transform="rotate(3870)"><path d="M 25 0 A 25 25 0 0 1 1.5308084989341915e-15 25 L 7.654042494670958e-16 12.5 A 12.5 12.5 0 0 0 12.5 0 Z" transform="translate(-12.5, -12.5)" fill="var(--fill-color, currentColor)" stroke="none"  /></g></g><g transform="translate(39, -13)"><g transform="rotate(4680)"><path d="M 25 0 A 25 25 0 0 1 1.5308084989341915e-15 25 L 7.654042494670958e-16 12.5 A 12.5 12.5 0 0 0 12.5 0 Z" transform="translate(-12.5, -12.5)" fill="var(--fill-color, currentColor)" stroke="none"  /></g></g><g transform="translate(65, -13)"><g transform="rotate(90)"><path d="M 25 0 A 25 25 0 0 1 1.5308084989341915e-15 25 L 7.654042494670958e-16 12.5 A 12.5 12.5 0 0 0 12.5 0 Z" transform="translate(-12.5, -12.5)" fill="var(--fill-color, currentColor)" stroke="none"  /></g></g><g transform="translate(91, -13)"><g transform="rotate(4860)"><path d="M 25 0 A 25 25 0 0 1 1.5308084989341915e-15 25 L 7.654042494670958e-16 12.5 A 12.5 12.5 0 0 0 12.5 0 Z" transform="translate(-12.5, -12.5)" fill="var(--fill-color, currentColor)" stroke="none"  /></g></g><g transform="translate(117, -13)"><g transform="rotate(5670)"><path d="M 25 0 A 25 25 0 0 1 1.5308084989341915e-15 25 L 7.654042494670958e-16 12.5 A 12.5 12.5 0 0 0 12.5 0 Z" transform="translate(-12.5, -12.5)" fill="var(--fill-color, currentColor)" stroke="none"  /></g></g><g transform="translate(-117, 13)"><g transform="rotate(8280)"><path d="M 25 0 A 25 25 0 0 1 1.5308084989341915e-15 25 L 7.654042494670958e-16 12.5 A 12.5 12.5 0 0 0 12.5 0 Z" transform="translate(-12.5, -12.5)" fill="var(--fill-color, currentColor)" stroke="none"  /></g></g><g transform="translate(-91, 13)"><g transform="rotate(3960)"><path d="M 25 0 A 25 25 0 0 1 1.5308084989341915e-15 25 L 7.654042494670958e-16 12.5 A 12.5 12.5 0 0 0 12.5 0 Z" transform="translate(-12.5, -12.5)" fill="var(--fill-color, currentColor)" stroke="none"  /></g></g><g transform="translate(-65, 13)"><g transform="rotate(630)"><path d="M 25 0 A 25 25 0 0 1 1.5308084989341915e-15 25 L 7.654042494670958e-16 12.5 A 12.5 12.5 0 0 0 12.5 0 Z" transform="translate(-12.5, -12.5)" fill="var(--fill-color, currentColor)" stroke="none"  /></g></g><g transform="translate(-39, 13)"><g transform="rotate(4410)"><path d="M 25 0 A 25 25 0 0 1 1.5308084989341915e-15 25 L 7.654042494670958e-16 12.5 A 12.5 12.5 0 0 0 12.5 0 Z" transform="translate(-12.5, -12.5)" fill="var(--fill-color, currentColor)" stroke="none"  /></g></g><g transform="translate(-13, 13)"><g transform="rotate(2070)"><path d="M 25 0 A 25 25 0 0 1 1.5308084989341915e-15 25 L 7.654042494670958e-16 12.5 A 12.5 12.5 0 0 0 12.5 0 Z" transform="translate(-12.5, -12.5)" fill="var(--fill-color, currentColor)" stroke="none"  /></g></g><g transform="translate(13, 13)"><g transform="rotate(6300)"><path d="M 25 0 A 25 25 0 0 1 1.5308084989341915e-15 25 L 7.654042494670958e-16 12.5 A 12.5 12.5 0 0 0 12.5 0 Z" transform="translate(-12.5, -12.5)" fill="var(--fill-color, currentColor)" stroke="none"  /></g></g><g transform="translate(39, 13)"><g transform="rotate(1170)"><path d="M 25 0 A 25 25 0 0 1 1.5308084989341915e-15 25 L 7.654042494670958e-16 12.5 A 12.5 12.5 0 0 0 12.5 0 Z" transform="translate(-12.5, -12.5)" fill="var(--fill-color, currentColor)" stroke="none"  /></g></g><g transform="translate(65, 13)"><g transform="rotate(4230)"><path d="M 25 0 A 25 25 0 0 1 1.5308084989341915e-15 25 L 7.654042494670958e-16 12.5 A 12.5 12.5 0 0 0 12.5 0 Z" transform="translate(-12.5, -12.5)" fill="var(--fill-color, currentColor)" stroke="none"  /></g></g><g transform="translate(91, 13)"><g transform="rotate(4500)"><path d="M 25 0 A 25 25 0 0 1 1.5308084989341915e-15 25 L 7.654042494670958e-16 12.5 A 12.5 12.5 0 0 0 12.5 0 Z" transform="translate(-12.5, -12.5)" fill="var(--fill-color, currentColor)" stroke="none"  /></g></g><g transform="translate(117, 13)"><g transform="rotate(3780)"><path d="M 25 0 A 25 25 0 0 1 1.5308084989341915e-15 25 L 7.654042494670958e-16 12.5 A 12.5 12.5 0 0 0 12.5 0 Z" transform="translate(-12.5, -12.5)" fill="var(--fill-color, currentColor)" stroke="none"  /></g></g><g transform="translate(-117, 39)"><g transform="rotate(3510)"><path d="M 25 0 A 25 25 0 0 1 1.5308084989341915e-15 25 L 7.654042494670958e-16 12.5 A 12.5 12.5 0 0 0 12.5 0 Z" transform="translate(-12.5, -12.5)" fill="var(--fill-color, currentColor)" stroke="none"  /></g></g><g transform="translate(-91, 39)"><g transform="rotate(8640)"><path d="M 25 0 A 25 25 0 0 1 1.5308084989341915e-15 25 L 7.654042494670958e-16 12.5 A 12.5 12.5 0 0 0 12.5 0 Z" transform="translate(-12.5, -12.5)" fill="var(--fill-color, currentColor)" stroke="none"  /></g></g><g transform="translate(-65, 39)"><g transform="rotate(7110)"><path d="M 25 0 A 25 25 0 0 1 1.5308084989341915e-15 25 L 7.654042494670958e-16 12.5 A 12.5 12.5 0 0 0 12.5 0 Z" transform="translate(-12.5, -12.5)" fill="var(--fill-color, currentColor)" stroke="none"  /></g></g><g transform="translate(-39, 39)"><path d="M 25 0 A 25 25 0 0 1 1.5308084989341915e-15 25 L 7.654042494670958e-16 12.5 A 12.5 12.5 0 0 0 12.5 0 Z" transform="translate(-12.5, -12.5)" fill="var(--fill-color, currentColor)" stroke="none"  /></g><g transform="translate(-13, 39)"><g transform="rotate(2970)"><path d="M 25 0 A 25 25 0 0 1 1.5308084989341915e-15 25 L 7.654042494670958e-16 12.5 A 12.5 12.5 0 0 0 12.5 0 Z" transform="translate(-12.5, -12.5)" fill="var(--fill-color, currentColor)" stroke="none"  /></g></g><g transform="translate(13, 39)"><g transform="rotate(1530)"><path d="M 25 0 A 25 25 0 0 1 1.5308084989341915e-15 25 L 7.654042494670958e-16 12.5 A 12.5 12.5 0 0 0 12.5 0 Z" transform="translate(-12.5, -12.5)" fill="var(--fill-color, currentColor)" stroke="none"  /></g></g><g transform="translate(39, 39)"><g transform="rotate(8820)"><path d="M 25 0 A 25 25 0 0 1 1.5308084989341915e-15 25 L 7.654042494670958e-16 12.5 A 12.5 12.5 0 0 0 12.5 0 Z" transform="translate(-12.5, -12.5)" fill="var(--fill-color, currentColor)" stroke="none"  /></g></g><g transform="translate(65, 39)"><g transform="rotate(3060)"><path d="M 25 0 A 25 25 0 0 1 1.5308084989341915e-15 25 L 7.654042494670958e-16 12.5 A 12.5 12.5 0 0 0 12.5 0 Z" transform="translate(-12.5, -12.5)" fill="var(--fill-color, currentColor)" stroke="none"  /></g></g><g transform="translate(91, 39)"><g transform="rotate(1620)"><path d="M 25 0 A 25 25 0 0 1 1.5308084989341915e-15 25 L 7.654042494670958e-16 12.5 A 12.5 12.5 0 0 0 12.5 0 Z" transform="translate(-12.5, -12.5)" fill="var(--fill-color, currentColor)" stroke="none"  /></g></g><g transform="translate(117, 39)"><g transform="rotate(6840)"><path d="M 25 0 A 25 25 0 0 1 1.5308084989341915e-15 25 L 7.654042494670958e-16 12.5 A 12.5 12.5 0 0 0 12.5 0 Z" transform="translate(-12.5, -12.5)" fill="var(--fill-color, currentColor)" stroke="none"  /></g></g><g transform="translate(-117, 65)"><g transform="rotate(4140)"><path d="M 25 0 A 25 25 0 0 1 1.5308084989341915e-15 25 L 7.654042494670958e-16 12.5 A 12.5 12.5 0 0 0 12.5 0 Z" transform="translate(-12.5, -12.5)" fill="var(--fill-color, currentColor)" stroke="none"  /></g></g><g transform="translate(-91, 65)"><g transform="rotate(2160)"><path d="M 25 0 A 25 25 0 0 1 1.5308084989341915e-15 25 L 7.654042494670958e-16 12.5 A 12.5 12.5 0 0 0 12.5 0 Z" transform="translate(-12.5, -12.5)" fill="var(--fill-color, currentColor)" stroke="none"  /></g></g><g transform="translate(-65, 65)"><g transform="rotate(7470)"><path d="M 25 0 A 25 25 0 0 1 1.5308084989341915e-15 25 L 7.654042494670958e-16 12.5 A 12.5 12.5 0 0 0 12.5 0 Z" transform="translate(-12.5, -12.5)" fill="var(--fill-color, currentColor)" stroke="none"  /></g></g><g transform="translate(-39, 65)"><g transform="rotate(5310)"><path d="M 25 0 A 25 25 0 0 1 1.5308084989341915e-15 25 L 7.654042494670958e-16 12.5 A 12.5 12.5 0 0 0 12.5 0 Z" transform="translate(-12.5, -12.5)" fill="var(--fill-color, currentColor)" stroke="none"  /></g></g><g transform="translate(-13, 65)"><g transform="rotate(8550)"><path d="M 25 0 A 25 25 0 0 1 1.5308084989341915e-15 25 L 7.654042494670958e-16 12.5 A 12.5 12.5 0 0 0 12.5 0 Z" transform="translate(-12.5, -12.5)" fill="var(--fill-color, currentColor)" stroke="none"  /></g></g><g transform="translate(13, 65)"><g transform="rotate(7740)"><path d="M 25 0 A 25 25 0 0 1 1.5308084989341915e-15 25 L 7.654042494670958e-16 12.5 A 12.5 12.5 0 0 0 12.5 0 Z" transform="translate(-12.5, -12.5)" fill="var(--fill-color, currentColor)" stroke="none"  /></g></g><g transform="translate(39, 65)"><g transform="rotate(270)"><path d="M 25 0 A 25 25 0 0 1 1.5308084989341915e-15 25 L 7.654042494670958e-16 12.5 A 12.5 12.5 0 0 0 12.5 0 Z" transform="translate(-12.5, -12.5)" fill="var(--fill-color, currentColor)" stroke="none"  /></g></g><g transform="translate(65, 65)"><g transform="rotate(8460)"><path d="M 25 0 A 25 25 0 0 1 1.5308084989341915e-15 25 L 7.654042494670958e-16 12.5 A 12.5 12.5 0 0 0 12.5 0 Z" transform="translate(-12.5, -12.5)" fill="var(--fill-color, currentColor)" stroke="none"  /></g></g><g transform="translate(91, 65)"><g transform="rotate(1980)"><path d="M 25 0 A 25 25 0 0 1 1.5308084989341915e-15 25 L 7.654042494670958e-16 12.5 A 12.5 12.5 0 0 0 12.5 0 Z" transform="translate(-12.5, -12.5)" fill="var(--fill-color, currentColor)" stroke="none"  /></g></g><g transform="translate(117, 65)"><g transform="rotate(3240)"><path d="M 25 0 A 25 25 0 0 1 1.5308084989341915e-15 25 L 7.654042494670958e-16 12.5 A 12.5 12.5 0 0 0 12.5 0 Z" transform="translate(-12.5, -12.5)" fill="var(--fill-color, currentColor)" stroke="none"  /></g></g><g transform="translate(-117, 91)"><g transform="rotate(6120)"><path d="M 25 0 A 25 25 0 0 1 1.5308084989341915e-15 25 L 7.654042494670958e-16 12.5 A 12.5 12.5 0 0 0 12.5 0 Z" transform="translate(-12.5, -12.5)" fill="var(--fill-color, currentColor)" stroke="none"  /></g></g><g transform="translate(-91, 91)"><g transform="rotate(6210)"><path d="M 25 0 A 25 25 0 0 1 1.5308084989341915e-15 25 L 7.654042494670958e-16 12.5 A 12.5 12.5 0 0 0 12.5 0 Z" transform="translate(-12.5, -12.5)" fill="var(--fill-color, currentColor)" stroke="none"  /></g></g><g transform="translate(-65, 91)"><g transform="rotate(6660)"><path d="M 25 0 A 25 25 0 0 1 1.5308084989341915e-15 25 L 7.654042494670958e-16 12.5 A 12.5 12.5 0 0 0 12.5 0 Z" transform="translate(-12.5, -12.5)" fill="var(--fill-color, currentColor)" stroke="none"  /></g></g><g transform="translate(-39, 91)"><g transform="rotate(720)"><path d="M 25 0 A 25 25 0 0 1 1.5308084989341915e-15 25 L 7.654042494670958e-16 12.5 A 12.5 12.5 0 0 0 12.5 0 Z" transform="translate(-12.5, -12.5)" fill="var(--fill-color, currentColor)" stroke="none"  /></g></g><g transform="translate(-13, 91)"><g transform="rotate(1890)"><path d="M 25 0 A 25 25 0 0 1 1.5308084989341915e-15 25 L 7.654042494670958e-16 12.5 A 12.5 12.5 0 0 0 12.5 0 Z" transform="translate(-12.5, -12.5)" fill="var(--fill-color, currentColor)" stroke="none"  /></g></g><g transform="translate(13, 91)"><g transform="rotate(2790)"><path d="M 25 0 A 25 25 0 0 1 1.5308084989341915e-15 25 L 7.654042494670958e-16 12.5 A 12.5 12.5 0 0 0 12.5 0 Z" transform="translate(-12.5, -12.5)" fill="var(--fill-color, currentColor)" stroke="none"  /></g></g><g transform="translate(39, 91)"><g transform="rotate(8910)"><path d="M 25 0 A 25 25 0 0 1 1.5308084989341915e-15 25 L 7.654042494670958e-16 12.5 A 12.5 12.5 0 0 0 12.5 0 Z" transform="translate(-12.5, -12.5)" fill="var(--fill-color, currentColor)" stroke="none"  /></g></g><g transform="translate(65, 91)"><g transform="rotate(5580)"><path d="M 25 0 A 25 25 0 0 1 1.5308084989341915e-15 25 L 7.654042494670958e-16 12.5 A 12.5 12.5 0 0 0 12.5 0 Z" transform="translate(-12.5, -12.5)" fill="var(--fill-color, currentColor)" stroke="none"  /></g></g><g transform="translate(91, 91)"><g transform="rotate(7920)"><path d="M 25 0 A 25 25 0 0 1 1.5308084989341915e-15 25 L 7.654042494670958e-16 12.5 A 12.5 12.5 0 0 0 12.5 0 Z" transform="translate(-12.5, -12.5)" fill="var(--fill-color, currentColor)" stroke="none"  /></g></g><g transform="translate(117, 91)"><g transform="rotate(2250)"><path d="M 25 0 A 25 25 0 0 1 1.5308084989341915e-15 25 L 7.654042494670958e-16 12.5 A 12.5 12.5 0 0 0 12.5 0 Z" transform="translate(-12.5, -12.5)" fill="var(--fill-color, currentColor)" stroke="none"  /></g></g><g transform="translate(-117, 117)"><g transform="rotate(1800)"><path d="M 25 0 A 25 25 0 0 1 1.5308084989341915e-15 25 L 7.654042494670958e-16 12.5 A 12.5 12.5 0 0 0 12.5 0 Z" transform="translate(-12.5, -12.5)" fill="var(--fill-color, currentColor)" stroke="none"  /></g></g><g transform="translate(-91, 117)"><g transform="rotate(360)"><path d="M 25 0 A 25 25 0 0 1 1.5308084989341915e-15 25 L 7.654042494670958e-16 12.5 A 12.5 12.5 0 0 0 12.5 0 Z" transform="translate(-12.5, -12.5)" fill="var(--fill-color, currentColor)" stroke="none"  /></g></g><g transform="translate(-65, 117)"><g transform="rotate(1260)"><path d="M 25 0 A 25 25 0 0 1 1.5308084989341915e-15 25 L 7.654042494670958e-16 12.5 A 12.5 12.5 0 0 0 12.5 0 Z" transform="translate(-12.5, -12.5)" fill="var(--fill-color, currentColor)" stroke="none"  /></g></g><g transform="translate(-39, 117)"><g transform="rotate(4320)"><path d="M 25 0 A 25 25 0 0 1 1.5308084989341915e-15 25 L 7.654042494670958e-16 12.5 A 12.5 12.5 0 0 0 12.5 0 Z" transform="translate(-12.5, -12.5)" fill="var(--fill-color, currentColor)" stroke="none"  /></g></g><g transform="translate(-13, 117)"><g transform="rotate(5850)"><path d="M 25 0 A 25 25 0 0 1 1.5308084989341915e-15 25 L 7.654042494670958e-16 12.5 A 12.5 12.5 0 0 0 12.5 0 Z" transform="translate(-12.5, -12.5)" fill="var(--fill-color, currentColor)" stroke="none"  /></g></g><g transform="translate(13, 117)"><g transform="rotate(6480)"><path d="M 25 0 A 25 25 0 0 1 1.5308084989341915e-15 25 L 7.654042494670958e-16 12.5 A 12.5 12.5 0 0 0 12.5 0 Z" transform="translate(-12.5, -12.5)" fill="var(--fill-color, currentColor)" stroke="none"  /></g></g><g transform="translate(39, 117)"><g transform="rotate(6030)"><path d="M 25 0 A 25 25 0 0 1 1.5308084989341915e-15 25 L 7.654042494670958e-16 12.5 A 12.5 12.5 0 0 0 12.5 0 Z" transform="translate(-12.5, -12.5)" fill="var(--fill-color, currentColor)" stroke="none"  /></g></g><g transform="translate(65, 117)"><g transform="rotate(8010)"><path d="M 25 0 A 25 25 0 0 1 1.5308084989341915e-15 25 L 7.654042494670958e-16 12.5 A 12.5 12.5 0 0 0 12.5 0 Z" transform="translate(-12.5, -12.5)" fill="var(--fill-color, currentColor)" stroke="none"  /></g></g><g transform="translate(91, 117)"><g transform="rotate(4590)"><path d="M 25 0 A 25 25 0 0 1 1.5308084989341915e-15 25 L 7.654042494670958e-16 12.5 A 12.5 12.5 0 0 0 12.5 0 Z" transform="translate(-12.5, -12.5)" fill="var(--fill-color, currentColor)" stroke="none"  /></g></g><g transform="translate(117, 117)"><g transform="rotate(5220)"><path d="M 25 0 A 25 25 0 0 1 1.5308084989341915e-15 25 L 7.654042494670958e-16 12.5 A 12.5 12.5 0 0 0 12.5 0 Z" transform="translate(-12.5, -12.5)" fill="var(--fill-color, currentColor)" stroke="none"  /></g></g></g></g>
</svg>