<svg xmlns="http://www.w3.org/2000/svg" viewBox="0 0 8572.2775 8572.2775" width="8572.2775" height="8572.2775">
  <style>
    svg {
      --fill-color: #cccccc;
      --stroke-color: #cccccc;
      --background-color: transparent;
      --occlusion-color: #1a1a1a;
    }
  </style>
  <g transform="translate(4286.13875, 4286.13875)"><path d="M 1158.2450000000001 0 A 1158.2450000000001 1158.2450000000001 0 0 1 1058.1094585872543 471.1006831593302 L 1057.1959131296117 470.6939465162544 A 1157.2450000000001 1157.2450000000001 0 0 0 1157.2450000000001 0 Z" transform="rotate(336) translate(0, 0)" fill="var(--fill-color, currentColor)" stroke="none"  /><path d="M 1207.6512500000001 0 A 1207.6512500000001 1207.6512500000001 0 1 1 373.18475952814805 -1148.5445907244878 L 362.6453486637475 -1116.1076194155962 A 1173.545 1173.545 0 1 0 1173.545 0 Z" transform="rotate(240) translate(0, 0)" fill="var(--fill-color, currentColor)" stroke="none"  /><path d="M 1356.99125 0 A 1356.99125 1356.99125 0 1 1 -1097.828982468103 -797.6194442399284 L -989.3883445420852 -718.8327090226453 A 1222.95125 1222.95125 0 1 0 1222.95125 0 Z" transform="rotate(240) translate(0, 0)" fill="var(--fill-color, currentColor)" stroke="none"  /><path d="M 1672.8875 0 A 1672.8875 1672.8875 0 1 1 -1353.39441717742 -983.2986012444245 L -1110.2069424820397 -806.6125586000031 A 1372.29125 1372.29125 0 1 0 1372.29125 0 Z" transform="rotate(264) translate(0, 0)" fill="var(--fill-color, currentColor)" stroke="none"  /><path d="M 2221.9624999999996 0 A 2221.9624999999996 2221.9624999999996 0 0 1 -1110.9812499999994 1924.2759712563807 L -844.0937499999995 1462.013261351342 A 1688.1874999999998 1688.1874999999998 0 0 0 1688.1874999999998 0 Z" transform="rotate(288) translate(0, 0)" fill="var(--fill-color, currentColor)" stroke="none"  /><path d="M 3070.83875 0 A 3070.83875 3070.83875 0 1 1 -2484.360735735121 -1804.9937294182525 L -1809.983383377781 -1315.029903006989 A 2237.2625 2237.2625 0 1 0 2237.2625 0 Z" transform="rotate(240) translate(0, 0)" fill="var(--fill-color, currentColor)" stroke="none"  /><path d="M 4286.13875 0 A 4286.13875 4286.13875 0 1 1 -448.0234968894407 -4262.6588334614025 L -322.58934096825664 -3069.232559019474 A 3086.13875 3086.13875 0 1 0 3086.13875 0 Z" transform="rotate(240) translate(0, 0)" fill="var(--fill-color, currentColor)" stroke="none"  /></g>
</svg>