<svg xmlns="http://www.w3.org/2000/svg" viewBox="0 0 525 521.6157836914062" width="525" height="521.6157836914062">
  <style>
    svg {
      --fill-color: #cccccc;
      --stroke-color: #cccccc;
      --background-color: transparent;
      --occlusion-color: #1a1a1a;
    }
  </style>
  <g transform="translate(262.5, 260.8078918457031)"><g transform="translate(0, 8.810546875)"><g transform="translate(0.00, 232.00) scale(1.0000) rotate(0.00)"><path d="M -242.5 -0.007937848623265431 L -232.18085106382978 -0.016624487151167693 L -221.86170212765958 -0.023683899324293028 L -211.54255319148936 -0.08992599533770933 L -201.22340425531917 -0.07659431648453588 L -190.90425531914894 -0.20407351589906722 L -180.58510638297872 -0.3036052915033961 L -170.2659574468085 -0.021392173600010778 L -159.9468085106383 -0.39918329976553607 L -149.62765957446808 -0.03345438183463913 L -139.3085106382979 -1.0250442508170035 L -128.98936170212767 -0.8751474023578176 L -118.67021276595746 -1.0606733390241077 L -108.35106382978722 -4.606043368810159 L -98.03191489361703 -2.576550443702599 L -87.7127659574468 -7.105265285024448 L -77.39361702127661 -8.446581027733357 L -67.07446808510636 -0.6630736852666201 L -56.75531914893617 -14.471057363567066 L -46.43617021276597 -17.293773025221338 L -36.11702127659575 -6.352841536366693 L -25.797872340425556 -19.395573116098742 L -15.478723404255305 -9.212386676955331 L -5.159574468085111 -12.497585158198499 L 5.159574468085083 -4.665482600189467 L 15.478723404255334 -13.708242753846053 L 25.797872340425556 -6.9649072407258545 L 36.11702127659578 -3.883992106965868 L 46.436170212765944 -4.74986738667431 L 56.75531914893617 -2.235617972778946 L 67.07446808510639 -4.616415530230693 L 77.39361702127655 -10.15361307907965 L 87.71276595744678 -6.784976728997226 L 98.03191489361706 -0.2666897786767793 L 108.35106382978728 -0.9893861678126761 L 118.67021276595744 -0.17981092094326243 L 128.98936170212767 -0.33600356073311016 L 139.3085106382979 -1.1057807264989727 L 149.62765957446805 -0.9852616993915647 L 159.94680851063828 -0.39577781656709154 L 170.2659574468085 -0.23039345306509737 L 180.58510638297872 -0.28067636001981977 L 190.9042553191489 -0.16626472748436177 L 201.22340425531917 -0.0315497189613008 L 211.5425531914894 -0.009584916163389854 L 221.8617021276596 -0.008707256241585222 L 232.18085106382978 -0.0027579205501095 L 242.5 -0.00774901398672777" fill="none" stroke="var(--stroke-color, currentColor)" stroke-width="1" stroke-linecap="round" stroke-linejoin="round" vector-effect="non-scaling-stroke" /></g><g transform="translate(0.00, 215.43) scale(1.0000) rotate(0.00)"><path d="M -242.5 -0.020680261905037314 L -232.18085106382978 -0.0430987560456209 L -221.86170212765958 -0.05184375830847311 L -211.54255319148936 -0.12356707950457053 L -201.22340425531917 -0.1005941949523656 L -190.90425531914894 -0.2685477774230224 L -180.58510638297872 -0.319079653626724 L -170.2659574468085 -0.42986447496817975 L -159.9468085106383 -1.1107411243183143 L -149.62765957446808 -0.8375729362934892 L -139.3085106382979 -0.2597576381253929 L -128.98936170212767 -0.4466530669911175 L -118.67021276595746 -2.263212537287238 L -108.35106382978722 -5.559808201141064 L -98.03191489361703 -2.310881295839182 L -87.7127659574468 -6.274596158398234 L -77.39361702127661 -10.373978705515308 L -67.07446808510636 -9.246818720873051 L -56.75531914893617 -7.148656424824709 L -46.43617021276597 -19.97717968176505 L -36.11702127659575 -0.11286690987224754 L -25.797872340425556 -19.88664834479722 L -15.478723404255305 -18.362736692395952 L -5.159574468085111 -0.17047981378818725 L 5.159574468085083 -4.523816100293168 L 15.478723404255334 -1.5378616636735634 L 25.797872340425556 -2.3774403719448305 L 36.11702127659578 -8.883543956483166 L 46.436170212765944 -10.77191846970414 L 56.75531914893617 -5.802669779329363 L 67.07446808510639 -4.1706079863117145 L 77.39361702127655 -6.722152895367449 L 87.71276595744678 -5.392494581956583 L 98.03191489361706 -0.97348417438776 L 108.35106382978728 -2.6421755416718224 L 118.67021276595744 -3.399699521833212 L 128.98936170212767 -1.2408133226457108 L 139.3085106382979 -1.5501683358239806 L 149.62765957446805 -1.4738512674911388 L 159.94680851063828 -0.3970886987045447 L 170.2659574468085 -0.08958681706809585 L 180.58510638297872 -0.14773756500018254 L 190.9042553191489 -0.08784013734575823 L 201.22340425531917 -0.03769771557794499 L 211.5425531914894 -0.0955182423140493 L 221.8617021276596 -0.002934534498830699 L 232.18085106382978 -0.03076106723291995 L 242.5 -0.0019527585985993185" fill="none" stroke="var(--stroke-color, currentColor)" stroke-width="1" stroke-linecap="round" stroke-linejoin="round" vector-effect="non-scaling-stroke" /></g><g transform="translate(0.00, 198.86) scale(1.0000) rotate(0.00)"><path d="M -242.5 -0.020913838580311584 L -232.18085106382978 -0.055797914389114245 L -221.86170212765958 -0.06396506548310321 L -211.54255319148936 -0.10989314415650439 L -201.22340425531917 -0.09040528081238654 L -190.90425531914894 -0.24013410651127584 L -180.58510638297872 -0.2852717712136695 L -170.2659574468085 -0.19734287199610673 L -159.9468085106383 -0.47892926866928803 L -149.62765957446808 -0.4561548591471447 L -139.3085106382979 -0.25723174897111745 L -128.98936170212767 -1.3826987814371599 L -118.67021276595746 -5.7530497924329795 L -108.35106382978722 -7.0888357258781065 L -98.03191489361703 -2.368454144316872 L -87.7127659574468 -0.979961458519499 L -77.39361702127661 -7.087821020776593 L -67.07446808510636 -18.71933551172433 L -56.75531914893617 -7.988024142733603 L -46.43617021276597 -9.806378683535186 L -36.11702127659575 -0.20366939981346954 L -25.797872340425556 -13.717825632163482 L -15.478723404255305 -14.900553575450907 L -5.159574468085111 -4.402060276041203 L 5.159574468085083 -10.041452455998579 L 15.478723404255334 -17.588058494320272 L 25.797872340425556 -9.548708006925445 L 36.11702127659578 -12.551471768991298 L 46.436170212765944 -17.120698119471047 L 56.75531914893617 -6.703486491642758 L 67.07446808510639 -1.0526068939941724 L 77.39361702127655 -2.9722829026748596 L 87.71276595744678 -2.3894627358489737 L 98.03191489361706 -1.4762731159253704 L 108.35106382978728 -3.3784546599532614 L 118.67021276595744 -4.270378565481637 L 128.98936170212767 -2.101887095717066 L 139.3085106382979 -0.3984792382626738 L 149.62765957446805 -0.1020831358672867 L 159.94680851063828 -0.5584284646152028 L 170.2659574468085 -0.545998765393968 L 180.58510638297872 -0.5089772753532528 L 190.9042553191489 -0.2892546703158564 L 201.22340425531917 -0.032332368686738555 L 211.5425531914894 -0.1354292610538317 L 221.8617021276596 -0.004175129916462649 L 232.18085106382978 -0.04596312685667532 L 242.5 -0.0016989653423046412" fill="none" stroke="var(--stroke-color, currentColor)" stroke-width="1" stroke-linecap="round" stroke-linejoin="round" vector-effect="non-scaling-stroke" /></g><g transform="translate(0.00, 182.29) scale(1.0000) rotate(0.00)"><path d="M -242.5 -0.019598650057412063 L -232.18085106382978 -0.0702228684448256 L -221.86170212765958 -0.06739717343054712 L -211.54255319148936 -0.04912827608733094 L -201.22340425531917 -0.03889270215462975 L -190.90425531914894 -0.14994491417434982 L -180.58510638297872 -0.16472334539907973 L -170.2659574468085 -0.3546802878480342 L -159.9468085106383 -0.7918397269335566 L -149.62765957446808 -0.683311395655639 L -139.3085106382979 -0.981426737045599 L -128.98936170212767 -0.2701895887729996 L -118.67021276595746 -5.9291169611668675 L -108.35106382978722 -8.011932201725205 L -98.03191489361703 -4.806037962049507 L -87.7127659574468 -7.722219157172144 L -77.39361702127661 -3.123901030123761 L -67.07446808510636 -17.06616170528456 L -56.75531914893617 -15.771806738650316 L -46.43617021276597 -1.8588850507124128 L -36.11702127659575 -4.262112105961856 L -25.797872340425556 -5.014488213039877 L -15.478723404255305 -5.446453210388181 L -5.159574468085111 -4.274676695836926 L 5.159574468085083 -13.342177163251153 L 15.478723404255334 -22.976161774622973 L 25.797872340425556 -15.654530490736805 L 36.11702127659578 -3.1006052051830113 L 46.436170212765944 -2.6930050666766197 L 56.75531914893617 -6.888732363348986 L 67.07446808510639 -9.48702084370639 L 77.39361702127655 -11.440943545857424 L 87.71276595744678 -9.317436149293215 L 98.03191489361706 -3.0260774961943344 L 108.35106382978728 -0.7008499680954564 L 118.67021276595744 -0.7494018789248553 L 128.98936170212767 -0.4162934549240948 L 139.3085106382979 -0.5503512772449364 L 149.62765957446805 -1.399062936974167 L 159.94680851063828 -1.3148312700668003 L 170.2659574468085 -0.6825841060759437 L 180.58510638297872 -0.4104722805076347 L 190.9042553191489 -0.11328846959501844 L 201.22340425531917 -0.11436625959100413 L 211.5425531914894 -0.13382734918781963 L 221.8617021276596 -0.003931683415765042 L 232.18085106382978 -0.041215017414992325 L 242.5 -0.00875991403034651" fill="none" stroke="var(--stroke-color, currentColor)" stroke-width="1" stroke-linecap="round" stroke-linejoin="round" vector-effect="non-scaling-stroke" /></g><g transform="translate(0.00, 165.71) scale(1.0000) rotate(0.00)"><path d="M -242.5 -0.022205985364770142 L -232.18085106382978 -0.07518886577804043 L -221.86170212765958 -0.031557059848551255 L -211.54255319148936 -0.06635836347939089 L -201.22340425531917 -0.08661264206026771 L -190.90425531914894 -0.1049915105708334 L -180.58510638297872 -0.09104353529044015 L -170.2659574468085 -0.4805095548811679 L -159.9468085106383 -1.4874974981373732 L -149.62765957446808 -1.1873491152998632 L -139.3085106382979 -2.2023022151304983 L -128.98936170212767 -3.8990706337376118 L -118.67021276595746 -1.904394268040462 L -108.35106382978722 -6.326547247560819 L -98.03191489361703 -5.775763427947832 L -87.7127659574468 -10.497843089838238 L -77.39361702127661 -9.318420377124967 L -67.07446808510636 -5.7020821406532916 L -56.75531914893617 -7.039508700371221 L -46.43617021276597 -11.687487579224078 L -36.11702127659575 -18.75528618439838 L -25.797872340425556 -22.367797978912616 L -15.478723404255305 -23.116733629765125 L -5.159574468085111 -10.050052142899691 L 5.159574468085083 -3.5324494130370634 L 15.478723404255334 -4.942665219425504 L 25.797872340425556 -3.6728761049276692 L 36.11702127659578 -4.243897474690281 L 46.436170212765944 -14.34384978974252 L 56.75531914893617 -18.636484477198007 L 67.07446808510639 -12.59239780193641 L 77.39361702127655 -12.785414078710968 L 87.71276595744678 -12.81218268855551 L 98.03191489361706 -3.3392840183654826 L 108.35106382978728 -3.176256292362338 L 118.67021276595744 -4.157254257274708 L 128.98936170212767 -2.2426043486912146 L 139.3085106382979 -0.0039025897112167666 L 149.62765957446805 -0.9198885029881416 L 159.94680851063828 -0.7716256027650268 L 170.2659574468085 -0.30089537740326955 L 180.58510638297872 -0.07184265904768011 L 190.9042553191489 -0.29311939713319257 L 201.22340425531917 -0.2323338506221893 L 211.5425531914894 -0.1091494791099146 L 221.8617021276596 -0.005046374508048107 L 232.18085106382978 -0.033731980902611834 L 242.5 -0.014208095125116036" fill="none" stroke="var(--stroke-color, currentColor)" stroke-width="1" stroke-linecap="round" stroke-linejoin="round" vector-effect="non-scaling-stroke" /></g><g transform="translate(0.00, 149.14) scale(1.0000) rotate(0.00)"><path d="M -242.5 -0.017225806369856274 L -232.18085106382978 -0.041786292601256755 L -221.86170212765958 -0.06114160000955391 L -211.54255319148936 -0.1952897120913712 L -201.22340425531917 -0.2479277044159868 L -190.90425531914894 -0.15377302751901 L -180.58510638297872 -0.41149945531852866 L -170.2659574468085 -0.10028814659582097 L -159.9468085106383 -1.2314073373595704 L -149.62765957446808 -0.6541241817739001 L -139.3085106382979 -3.0860343381349846 L -128.98936170212767 -6.218287537625127 L -118.67021276595746 -2.7026267344262664 L -108.35106382978722 -2.3336866110441257 L -98.03191489361703 -1.7393249418315446 L -87.7127659574468 -2.657983422643159 L -77.39361702127661 -2.6568390600811482 L -67.07446808510636 -1.8210814891402276 L -56.75531914893617 -1.1481313159201687 L -46.43617021276597 -25.16838037304514 L -36.11702127659575 -34.25376041911813 L -25.797872340425556 -24.077739593643297 L -15.478723404255305 -12.907282633461797 L -5.159574468085111 -3.5723254501748247 L 5.159574468085083 -13.974640886431366 L 15.478723404255334 -21.020965162689137 L 25.797872340425556 -15.408571586880068 L 36.11702127659578 -0.735331915248099 L 46.436170212765944 -10.1784809570657 L 56.75531914893617 -11.579301585300698 L 67.07446808510639 -6.7111863365075175 L 77.39361702127655 -13.26001258703459 L 87.71276595744678 -16.112303869779762 L 98.03191489361706 -4.361505591296387 L 108.35106382978728 -4.389620696280127 L 118.67021276595744 -6.054479710753736 L 128.98936170212767 -3.7187984936542806 L 139.3085106382979 -1.0287949163647743 L 149.62765957446805 -0.7867405755816651 L 159.94680851063828 -0.65604892618217 L 170.2659574468085 -0.2714312442839154 L 180.58510638297872 -0.2756309061738024 L 190.9042553191489 -0.3541919316932964 L 201.22340425531917 -0.20358642096666044 L 211.5425531914894 -0.055921644677099806 L 221.8617021276596 -0.04223227022832953 L 232.18085106382978 -0.05062897613792148 L 242.5 -0.0012429083510801162" fill="none" stroke="var(--stroke-color, currentColor)" stroke-width="1" stroke-linecap="round" stroke-linejoin="round" vector-effect="non-scaling-stroke" /></g><g transform="translate(0.00, 132.57) scale(1.0000) rotate(0.00)"><path d="M -242.5 -0.002754790159188161 L -232.18085106382978 -0.006478843652353192 L -221.86170212765958 -0.13432446164145898 L -211.54255319148936 -0.246228208204676 L -201.22340425531917 -0.33020771240046426 L -190.90425531914894 -0.21489269002658376 L -180.58510638297872 -0.616285925893992 L -170.2659574468085 -0.5224971207597513 L -159.9468085106383 -1.0321574034226189 L -149.62765957446808 -0.005961471975248815 L -139.3085106382979 -3.1901778774181677 L -128.98936170212767 -5.328221913035246 L -118.67021276595746 -2.4518843075607797 L -108.35106382978722 -2.394568216791831 L -98.03191489361703 -2.569465799733139 L -87.7127659574468 -9.02073996598876 L -77.39361702127661 -9.08244480962465 L -67.07446808510636 -10.355490232596061 L -56.75531914893617 -9.86101848568057 L -46.43617021276597 -18.70795802996819 L -36.11702127659575 -35.624850980221524 L -25.797872340425556 -9.54067747873934 L -15.478723404255305 -17.49933399179452 L -5.159574468085111 -25.931320123741223 L 5.159574468085083 -24.663762728448937 L 15.478723404255334 -31.26231102417839 L 25.797872340425556 -25.729765789468285 L 36.11702127659578 -9.05747831776048 L 46.436170212765944 -7.562154152646211 L 56.75531914893617 -8.49946744010446 L 67.07446808510639 -2.147689045767337 L 77.39361702127655 -16.008329956048154 L 87.71276595744678 -16.8997883801073 L 98.03191489361706 -1.567046252056889 L 108.35106382978728 -4.878988372787049 L 118.67021276595744 -5.5806334065352 L 128.98936170212767 -4.737271633840944 L 139.3085106382979 -2.382113776762478 L 149.62765957446805 -2.0269837977564418 L 159.94680851063828 -1.6694772706473882 L 170.2659574468085 -0.5916700452186973 L 180.58510638297872 -0.030857401160857188 L 190.9042553191489 -0.009271046850369042 L 201.22340425531917 -0.005275542340312538 L 211.5425531914894 -0.021381458435598508 L 221.8617021276596 -0.0686226552111093 L 232.18085106382978 -0.06216637020751432 L 242.5 -0.01862736272600268" fill="none" stroke="var(--stroke-color, currentColor)" stroke-width="1" stroke-linecap="round" stroke-linejoin="round" vector-effect="non-scaling-stroke" /></g><g transform="translate(0.00, 116.00) scale(1.0000) rotate(0.00)"><path d="M -242.5 -0.003295392009081508 L -232.18085106382978 -0.021270579324420023 L -221.86170212765958 -0.141665408269954 L -211.54255319148936 -0.21453835540816574 L -201.22340425531917 -0.30320979663772296 L -190.90425531914894 -0.20756999990469216 L -180.58510638297872 -0.5914316069163822 L -170.2659574468085 -0.24219685878239613 L -159.9468085106383 -1.5286913858571016 L -149.62765957446808 -0.15625747890585978 L -139.3085106382979 -3.4333666352453958 L -128.98936170212767 -3.241992844540016 L -118.67021276595746 -1.534327227459582 L -108.35106382978722 -8.636133799555754 L -98.03191489361703 -1.6360694684923816 L -87.7127659574468 -13.281137530307843 L -77.39361702127661 -15.309485610585492 L -67.07446808510636 -17.422867987516227 L -56.75531914893617 -27.75700241962396 L -46.43617021276597 -4.952455770307817 L -36.11702127659575 -21.263022947432496 L -25.797872340425556 -0.3261747497200059 L -15.478723404255305 -25.308203194904433 L -5.159574468085111 -26.62428823454482 L 5.159574468085083 -18.248916106185824 L 15.478723404255334 -27.415983925605037 L 25.797872340425556 -31.82965585342071 L 36.11702127659578 -20.156918010386836 L 46.436170212765944 -21.17044548416859 L 56.75531914893617 -22.06401486406212 L 67.07446808510639 -6.9065847524415975 L 77.39361702127655 -14.027323458888143 L 87.71276595744678 -8.616551069286743 L 98.03191489361706 -7.854082941564037 L 108.35106382978728 -7.877767389676719 L 118.67021276595744 -4.7891251193633355 L 128.98936170212767 -4.956480857517159 L 139.3085106382979 -2.8216664115701313 L 149.62765957446805 -1.9795134096920095 L 159.94680851063828 -2.076936496488544 L 170.2659574468085 -0.7734786017644829 L 180.58510638297872 -0.24346988427027547 L 190.9042553191489 -0.4081655212371295 L 201.22340425531917 -0.23071118559234388 L 211.5425531914894 -0.060232675880022284 L 221.8617021276596 -0.030878303127348156 L 232.18085106382978 -0.025924979966763354 L 242.5 -0.009613582114789448" fill="none" stroke="var(--stroke-color, currentColor)" stroke-width="1" stroke-linecap="round" stroke-linejoin="round" vector-effect="non-scaling-stroke" /></g><g transform="translate(0.00, 99.43) scale(1.0000) rotate(0.00)"><path d="M -242.5 -0.01716127312085551 L -232.18085106382978 -0.0019160872763933502 L -221.86170212765958 -0.12432242859934603 L -211.54255319148936 -0.20382178154722325 L -201.22340425531917 -0.26738760946238865 L -190.90425531914894 -0.12239242772324817 L -180.58510638297872 -0.48787533569800584 L -170.2659574468085 -0.1108833837602455 L -159.9468085106383 -1.7674870564113523 L -149.62765957446808 -0.17432172899776407 L -139.3085106382979 -3.7704354773497797 L -128.98936170212767 -3.6760947315187362 L -118.67021276595746 -1.1004956400001793 L -108.35106382978722 -11.627654564588903 L -98.03191489361703 -9.947223182018229 L -87.7127659574468 -9.689740658428722 L -77.39361702127661 -18.27396147100788 L -67.07446808510636 -21.37542361625882 L -56.75531914893617 -34.86508190026196 L -46.43617021276597 -22.875137059420812 L -36.11702127659575 -4.382048969693459 L -25.797872340425556 -2.9010502520890333 L -15.478723404255305 -1.6928342848302285 L -5.159574468085111 -1.7581220958592847 L 5.159574468085083 -3.5725614698147914 L 15.478723404255334 -20.693558413251782 L 25.797872340425556 -32.81281334208559 L 36.11702127659578 -24.553026204161526 L 46.436170212765944 -18.930389419929515 L 56.75531914893617 -13.15026472517625 L 67.07446808510639 -4.5396148468751285 L 77.39361702127655 -11.121170206039459 L 87.71276595744678 -3.715989245658739 L 98.03191489361706 -15.56884578434563 L 108.35106382978728 -8.893131102626626 L 118.67021276595744 -2.293104907725066 L 128.98936170212767 -2.1886326681045567 L 139.3085106382979 -1.170759279427664 L 149.62765957446805 -1.7450500266131241 L 159.94680851063828 -2.5200030763546075 L 170.2659574468085 -0.9339460024520898 L 180.58510638297872 -0.28720372876903344 L 190.9042553191489 -0.45100435601421307 L 201.22340425531917 -0.24098737242553608 L 211.5425531914894 -0.037831157026642914 L 221.8617021276596 -0.043935786644988095 L 232.18085106382978 -0.03978470274096329 L 242.5 -0.01538673492902691" fill="none" stroke="var(--stroke-color, currentColor)" stroke-width="1" stroke-linecap="round" stroke-linejoin="round" vector-effect="non-scaling-stroke" /></g><g transform="translate(0.00, 82.86) scale(1.0000) rotate(0.00)"><path d="M -242.5 -0.0472750088200395 L -232.18085106382978 -0.017968764090888326 L -221.86170212765958 -0.0956511064371885 L -211.54255319148936 -0.1821717037385759 L -201.22340425531917 -0.17937226262699874 L -190.90425531914894 -0.16302806788314797 L -180.58510638297872 -0.7593515815856028 L -170.2659574468085 -0.09933806889424707 L -159.9468085106383 -1.316133864601098 L -149.62765957446808 -0.14234971039456032 L -139.3085106382979 -2.971166936193744 L -128.98936170212767 -5.311259769709099 L -118.67021276595746 -4.879012842016667 L -108.35106382978722 -6.165947025265542 L -98.03191489361703 -10.622246396543655 L -87.7127659574468 -6.233478289947754 L -77.39361702127661 -18.501593635670087 L -67.07446808510636 -20.080380965643073 L -56.75531914893617 -24.12959963098872 L -46.43617021276597 -12.350837578968841 L -36.11702127659575 -10.230283511031285 L -25.797872340425556 -16.2230984791267 L -15.478723404255305 -26.073106180801084 L -5.159574468085111 -27.019966301282704 L 5.159574468085083 -9.615124562967582 L 15.478723404255334 -8.776210062528186 L 25.797872340425556 -15.349315954049633 L 36.11702127659578 -10.948501732879183 L 46.436170212765944 -7.615939170378036 L 56.75531914893617 -2.4218702780544583 L 67.07446808510639 -22.757912630060126 L 77.39361702127655 -16.824583333276014 L 87.71276595744678 -7.311180186704121 L 98.03191489361706 -14.120693497664494 L 108.35106382978728 -4.125925257415967 L 118.67021276595744 -2.448664766071977 L 128.98936170212767 -2.8987707819020088 L 139.3085106382979 -1.4021131300675038 L 149.62765957446805 -1.879057549594138 L 159.94680851063828 -2.6328483434571446 L 170.2659574468085 -0.48592728172209976 L 180.58510638297872 -0.4511840060199751 L 190.9042553191489 -0.12062144218599768 L 201.22340425531917 -0.04277377736793305 L 211.5425531914894 -0.0445445337076705 L 221.8617021276596 -0.05770549932090821 L 232.18085106382978 -0.07127791893974574 L 242.5 -0.026056375880077188" fill="none" stroke="var(--stroke-color, currentColor)" stroke-width="1" stroke-linecap="round" stroke-linejoin="round" vector-effect="non-scaling-stroke" /></g><g transform="translate(0.00, 66.29) scale(1.0000) rotate(0.00)"><path d="M -242.5 -0.05756996859831315 L -232.18085106382978 -0.02812333020931227 L -221.86170212765958 -0.014142507760692136 L -211.54255319148936 -0.027043805884627917 L -201.22340425531917 -0.020595623380273095 L -190.90425531914894 -0.5694387034392833 L -180.58510638297872 -1.0975813165064545 L -170.2659574468085 -0.26462005026619656 L -159.9468085106383 -0.8267754006590633 L -149.62765957446808 -0.3567244365072818 L -139.3085106382979 -1.3282314258027308 L -128.98936170212767 -4.754507454075186 L -118.67021276595746 -9.930726078051658 L -108.35106382978722 -2.460857148386919 L -98.03191489361703 -4.739168596477108 L -87.7127659574468 -2.9028321087905185 L -77.39361702127661 -9.106662253150208 L -67.07446808510636 -8.7960354819025 L -56.75531914893617 -3.5518744415971746 L -46.43617021276597 -13.900560455389886 L -36.11702127659575 -29.445548198450712 L -25.797872340425556 -27.277710815154812 L -15.478723404255305 -33.290491668228 L -5.159574468085111 -38.51806544754688 L 5.159574468085083 -19.765650085726193 L 15.478723404255334 -12.00076487152235 L 25.797872340425556 -17.59943652839702 L 36.11702127659578 -12.100912237569766 L 46.436170212765944 -6.838602391083956 L 56.75531914893617 -4.5390572260720665 L 67.07446808510639 -23.20549734065395 L 77.39361702127655 -23.02709260224344 L 87.71276595744678 -3.689129529686825 L 98.03191489361706 -7.619167056645047 L 108.35106382978728 -2.1905317330358587 L 118.67021276595744 -5.737860975378071 L 128.98936170212767 -5.71093316960714 L 139.3085106382979 -2.9713728129229624 L 149.62765957446805 -1.399930992410182 L 159.94680851063828 -1.4628180788880747 L 170.2659574468085 -0.7411572616935714 L 180.58510638297872 -0.829055606694764 L 190.9042553191489 -0.22731995314435666 L 201.22340425531917 -0.1239564273066807 L 211.5425531914894 -0.12405536615661471 L 221.8617021276596 -0.02240997073905646 L 232.18085106382978 -0.0324393208380312 L 242.5 -0.014857336585288034" fill="none" stroke="var(--stroke-color, currentColor)" stroke-width="1" stroke-linecap="round" stroke-linejoin="round" vector-effect="non-scaling-stroke" /></g><g transform="translate(0.00, 49.71) scale(1.0000) rotate(0.00)"><path d="M -242.5 -0.05134349235327977 L -232.18085106382978 -0.03490424202951643 L -221.86170212765958 -0.08554836863211178 L -211.54255319148936 -0.16368467875956247 L -201.22340425531917 -0.2135893091680052 L -190.90425531914894 -0.6975683984126492 L -180.58510638297872 -0.8199335782160189 L -170.2659574468085 -0.524407860802088 L -159.9468085106383 -0.8178648777915457 L -149.62765957446808 -1.188500696687608 L -139.3085106382979 -0.010125884961825555 L -128.98936170212767 -0.7370682413487375 L -118.67021276595746 -8.142554903247259 L -108.35106382978722 -5.6695658128933655 L -98.03191489361703 -0.3983381810872844 L -87.7127659574468 -4.018950611276676 L -77.39361702127661 -9.051422241665906 L -67.07446808510636 -8.677924992502723 L -56.75531914893617 -7.143354479429452 L -46.43617021276597 -17.929352597532986 L -36.11702127659575 -26.43680204317365 L -25.797872340425556 -19.311328736217106 L -15.478723404255305 -24.155951351994748 L -5.159574468085111 -40.46143334279337 L 5.159574468085083 -31.93760239318201 L 15.478723404255334 -28.200008320241615 L 25.797872340425556 -36.174720639782464 L 36.11702127659578 -25.945154718318577 L 46.436170212765944 -14.070969950801148 L 56.75531914893617 -26.57014895419164 L 67.07446808510639 -4.571835279382731 L 77.39361702127655 -16.454725125049443 L 87.71276595744678 -5.8018121692876585 L 98.03191489361706 -5.65702268997004 L 108.35106382978728 -5.6225796095745615 L 118.67021276595744 -6.766148247097439 L 128.98936170212767 -6.358870926298925 L 139.3085106382979 -3.986625994763644 L 149.62765957446805 -0.18029652255581335 L 159.94680851063828 -0.14206769332580219 L 170.2659574468085 -1.649362797813359 L 180.58510638297872 -0.8808055443140861 L 190.9042553191489 -0.43030630488984817 L 201.22340425531917 -0.17644746087326293 L 211.5425531914894 -0.17918999931262908 L 221.8617021276596 -0.1158364219407295 L 232.18085106382978 -0.036465467980671996 L 242.5 -0.0024891384179657186" fill="none" stroke="var(--stroke-color, currentColor)" stroke-width="1" stroke-linecap="round" stroke-linejoin="round" vector-effect="non-scaling-stroke" /></g><g transform="translate(0.00, 33.14) scale(1.0000) rotate(0.00)"><path d="M -242.5 -0.04777767986713679 L -232.18085106382978 -0.0295750953904195 L -221.86170212765958 -0.10261937067239428 L -211.54255319148936 -0.23726141130726758 L -201.22340425531917 -0.272951361950328 L -190.90425531914894 -0.4439804467251715 L -180.58510638297872 -0.022440719948593427 L -170.2659574468085 -1.6635019327840401 L -159.9468085106383 -0.8194488104673543 L -149.62765957446808 -2.3171004036482548 L -139.3085106382979 -0.37396375729754605 L -128.98936170212767 -4.111809034253391 L -118.67021276595746 -0.08293012443037429 L -108.35106382978722 -1.0001571802306608 L -98.03191489361703 -2.0773046838233338 L -87.7127659574468 -4.945808505342739 L -77.39361702127661 -18.930717865225827 L -67.07446808510636 -16.516844409922584 L -56.75531914893617 -4.1901469733594325 L -46.43617021276597 -1.6930512867809062 L -36.11702127659575 -2.529957305194963 L -25.797872340425556 -0.9875874031475044 L -15.478723404255305 -13.89859078343923 L -5.159574468085111 -35.515889651082894 L 5.159574468085083 -34.84870745722442 L 15.478723404255334 -25.46769879471513 L 25.797872340425556 -38.6794606612309 L 36.11702127659578 -33.95822194571417 L 46.436170212765944 -12.450996853862799 L 56.75531914893617 -38.307081608384145 L 67.07446808510639 -14.926031680561724 L 77.39361702127655 -2.591306186064835 L 87.71276595744678 -12.408136825807368 L 98.03191489361706 -7.381029491595663 L 108.35106382978728 -7.507215425487273 L 118.67021276595744 -8.178655392041412 L 128.98936170212767 -7.628860691775158 L 139.3085106382979 -4.593990490098831 L 149.62765957446805 -0.31983721700443213 L 159.94680851063828 -0.5534215862042936 L 170.2659574468085 -1.1771035244925914 L 180.58510638297872 -0.17364274191848178 L 190.9042553191489 -0.5441736838129734 L 201.22340425531917 -0.1650616713945122 L 211.5425531914894 -0.1675481036442782 L 221.8617021276596 -0.14181801082160175 L 232.18085106382978 -0.07317258082339674 L 242.5 -0.0010531076459103575" fill="none" stroke="var(--stroke-color, currentColor)" stroke-width="1" stroke-linecap="round" stroke-linejoin="round" vector-effect="non-scaling-stroke" /></g><g transform="translate(0.00, 16.57) scale(1.0000) rotate(0.00)"><path d="M -242.5 -0.037444151353710715 L -232.18085106382978 -0.015509411039378303 L -221.86170212765958 -0.03813708762059877 L -211.54255319148936 -0.23620279478898082 L -201.22340425531917 -0.3282766744105959 L -190.90425531914894 -0.23074779097838877 L -180.58510638297872 -0.6270548516016841 L -170.2659574468085 -1.9348799304274773 L -159.9468085106383 -0.25390909259456107 L -149.62765957446808 -2.9103013313530597 L -139.3085106382979 -0.4473964814603329 L -128.98936170212767 -6.011706824358645 L -118.67021276595746 -6.741650996943436 L -108.35106382978722 -4.945581571355978 L -98.03191489361703 -5.341445115857086 L -87.7127659574468 -4.651334205827322 L -77.39361702127661 -8.261018689774609 L -67.07446808510636 -0.058757062207360294 L -56.75531914893617 -11.720726076084256 L -46.43617021276597 -21.426272717769898 L -36.11702127659575 -29.893560428675837 L -25.797872340425556 -18.21443677936071 L -15.478723404255305 -2.116334304587359 L -5.159574468085111 -12.252545979505461 L 5.159574468085083 -12.168568872464515 L 15.478723404255334 -13.344892250192194 L 25.797872340425556 -43.99881364757965 L 36.11702127659578 -39.394483051944235 L 46.436170212765944 -3.3545156433412355 L 56.75531914893617 -30.151804911656587 L 67.07446808510639 -22.063764102630106 L 77.39361702127655 -9.38306176703352 L 87.71276595744678 -14.427614328722155 L 98.03191489361706 -6.947634822649901 L 108.35106382978728 -7.061565862949035 L 118.67021276595744 -8.900555472787714 L 128.98936170212767 -8.072542295191747 L 139.3085106382979 -3.1372772579373693 L 149.62765957446805 -1.2579229898629851 L 159.94680851063828 -0.3042074453807549 L 170.2659574468085 -0.053151276129964536 L 180.58510638297872 -0.8624878467832322 L 190.9042553191489 -0.6757874019946618 L 201.22340425531917 -0.12584570919213456 L 211.5425531914894 -0.07568885175499346 L 221.8617021276596 -0.09476432768190021 L 232.18085106382978 -0.07667014876595099 L 242.5 -0.001137776381344141" fill="none" stroke="var(--stroke-color, currentColor)" stroke-width="1" stroke-linecap="round" stroke-linejoin="round" vector-effect="non-scaling-stroke" /></g><g transform="translate(0.00, 0.00) scale(1.0000) rotate(0.00)"><path d="M -242.5 0 L -232.18085106382978 -0.0779209013060044 L -221.86170212765958 -0.019827571060155612 L -211.54255319148936 -0.2006306240679146 L -201.22340425531917 -0.3537129437669751 L -190.90425531914894 -0.2127154604517482 L -180.58510638297872 -0.5999940399501126 L -170.2659574468085 -1.1922434548839833 L -159.9468085106383 -0.5998089577747253 L -149.62765957446808 -2.5181556998328447 L -139.3085106382979 -0.3728120294588995 L -128.98936170212767 -5.178618957997292 L -118.67021276595746 -8.331456652407887 L -108.35106382978722 -7.372257044067661 L -98.03191489361703 -7.686211765501222 L -87.7127659574468 -14.364150310624622 L -77.39361702127661 -9.424316718871628 L -67.07446808510636 -20.677938318410245 L -56.75531914893617 -23.158040898386805 L -46.43617021276597 -24.919968031687166 L -36.11702127659575 -32.66382836499021 L -25.797872340425556 -16.957256511941655 L -15.478723404255305 -8.84205482565919 L -5.159574468085111 -22.271002300544367 L 5.159574468085083 -22.125681924536913 L 15.478723404255334 -4.82382984277941 L 25.797872340425556 -47.34644933567116 L 36.11702127659578 -29.298209634917384 L 46.436170212765944 -11.661995557681342 L 56.75531914893617 -21.2029523530396 L 67.07446808510639 -22.246896387294267 L 77.39361702127655 -18.314714399244856 L 87.71276595744678 -13.680902615684754 L 98.03191489361706 -4.914357770030125 L 108.35106382978728 -3.1653381243800878 L 118.67021276595744 -5.300161818216956 L 128.98936170212767 -4.796776048091787 L 139.3085106382979 -0.8513118441190498 L 149.62765957446805 -3.4801378355992925 L 159.94680851063828 -0.5225372837223473 L 170.2659574468085 -0.11843938457815138 L 180.58510638297872 -1.146053079158571 L 190.9042553191489 -0.7628242732884672 L 201.22340425531917 -0.18540121885798505 L 211.5425531914894 -0.10817417620909607 L 221.8617021276596 -0.022825782602684107 L 232.18085106382978 -0.04691487809867388 L 242.5 -0.0003580544717172669" fill="none" stroke="var(--stroke-color, currentColor)" stroke-width="1" stroke-linecap="round" stroke-linejoin="round" vector-effect="non-scaling-stroke" /></g><g transform="translate(0.00, -16.57) scale(1.0000) rotate(0.00)"><path d="M -242.5 -0.03740635438370501 L -232.18085106382978 -0.10698518755229493 L -221.86170212765958 -0.04315420074817435 L -211.54255319148936 -0.08007540917211226 L -201.22340425531917 -0.14596390845535862 L -190.90425531914894 -0.06765016098107458 L -180.58510638297872 -0.5264628906652771 L -170.2659574468085 -0.4874393938759958 L -159.9468085106383 -1.1845938446165605 L -149.62765957446808 -1.9908170602647473 L -139.3085106382979 -0.7807307432506637 L -128.98936170212767 -4.207510194834814 L -118.67021276595746 -7.264834575187408 L -108.35106382978722 -7.030208993196125 L -98.03191489361703 -7.328086574838469 L -87.7127659574468 -14.322075188611201 L -77.39361702127661 -10.167485586799847 L -67.07446808510636 -16.765677350117127 L -56.75531914893617 -15.590577772894006 L -46.43617021276597 -15.3973074280642 L -36.11702127659575 -22.97850191996979 L -25.797872340425556 -2.0431309411208334 L -15.478723404255305 -0.871782155850913 L -5.159574468085111 -34.305335275685266 L 5.159574468085083 -39.35688901694528 L 15.478723404255334 -3.1057253980881425 L 25.797872340425556 -30.45957268270314 L 36.11702127659578 -1.990429073758972 L 46.436170212765944 -34.91479878055991 L 56.75531914893617 -22.15652903476939 L 67.07446808510639 -17.784589293403545 L 77.39361702127655 -17.998951312488146 L 87.71276595744678 -9.717562913204809 L 98.03191489361706 -6.694392961111811 L 108.35106382978728 -5.779675493321588 L 118.67021276595744 -0.9087969511831618 L 128.98936170212767 -0.6270457101663648 L 139.3085106382979 -3.8278712818358005 L 149.62765957446805 -3.9858146018456693 L 159.94680851063828 -0.48224325405124613 L 170.2659574468085 -1.0242833863239043 L 180.58510638297872 -0.5380560701703229 L 190.9042553191489 -0.6328415464915805 L 201.22340425531917 -0.24971015333964433 L 211.5425531914894 -0.21600582515091934 L 221.8617021276596 -0.10204729419113713 L 232.18085106382978 -0.005589682265840185 L 242.5 -0.013863241374003082" fill="none" stroke="var(--stroke-color, currentColor)" stroke-width="1" stroke-linecap="round" stroke-linejoin="round" vector-effect="non-scaling-stroke" /></g><g transform="translate(0.00, -33.14) scale(1.0000) rotate(0.00)"><path d="M -242.5 -0.03335972661737973 L -232.18085106382978 -0.058483403949479935 L -221.86170212765958 -0.04172795207748305 L -211.54255319148936 -0.10759986524668283 L -201.22340425531917 -0.19592742324900256 L -190.90425531914894 -0.2591930474373795 L -180.58510638297872 -0.7947351609077373 L -170.2659574468085 -0.4745659251657159 L -159.9468085106383 -1.6100977733540565 L -149.62765957446808 -1.727539046325396 L -139.3085106382979 -2.2462586026466727 L -128.98936170212767 -5.3260178635205015 L -118.67021276595746 -6.661443160875743 L -108.35106382978722 -4.841433483131341 L -98.03191489361703 -5.433172839899431 L -87.7127659574468 -8.919942499427579 L -77.39361702127661 -1.2937464099293112 L -67.07446808510636 -4.716551767328717 L -56.75531914893617 -4.195634651968372 L -46.43617021276597 -10.850413358917283 L -36.11702127659575 -24.26017982275735 L -25.797872340425556 -6.773958621142787 L -15.478723404255305 -22.399763158502193 L -5.159574468085111 -23.97041376716477 L 5.159574468085083 -46.87763529565176 L 15.478723404255334 -14.406014314886104 L 25.797872340425556 -5.640867071126043 L 36.11702127659578 -27.149531377582154 L 46.436170212765944 -42.63751358720715 L 56.75531914893617 -15.327400939017584 L 67.07446808510639 -3.3927218640856176 L 77.39361702127655 -3.4215750677393397 L 87.71276595744678 -2.804026604287941 L 98.03191489361706 -12.039837279763166 L 108.35106382978728 -12.764709888197155 L 118.67021276595744 -2.8308776784700393 L 128.98936170212767 -0.13424110879076695 L 139.3085106382979 -3.6344124046549346 L 149.62765957446805 -2.352207051613659 L 159.94680851063828 -1.545620257866466 L 170.2659574468085 -1.9226259351020631 L 180.58510638297872 -0.3199467468786595 L 190.9042553191489 -0.2816292612935417 L 201.22340425531917 -0.13870210123862378 L 211.5425531914894 -0.11600262659539709 L 221.8617021276596 -0.059798057316538776 L 232.18085106382978 -0.009664748094267515 L 242.5 -0.044682148232456545" fill="none" stroke="var(--stroke-color, currentColor)" stroke-width="1" stroke-linecap="round" stroke-linejoin="round" vector-effect="non-scaling-stroke" /></g><g transform="translate(0.00, -49.71) scale(1.0000) rotate(0.00)"><path d="M -242.5 -0.017501768823184962 L -232.18085106382978 -0.03746596723316762 L -221.86170212765958 -0.015684125686083183 L -211.54255319148936 -0.18973243237701554 L -201.22340425531917 -0.3390277353057214 L -190.90425531914894 -0.3836411818294826 L -180.58510638297872 -0.900927440039017 L -170.2659574468085 -0.5262345391161926 L -159.9468085106383 -1.7738782300607978 L -149.62765957446808 -1.529194222696737 L -139.3085106382979 -2.6584859261714517 L -128.98936170212767 -5.382999867867938 L -118.67021276595746 -5.118517553945368 L -108.35106382978722 -2.3134498826593837 L -98.03191489361703 -6.2418434779856495 L -87.7127659574468 -11.472703798165522 L -77.39361702127661 -4.611842231606045 L -67.07446808510636 -21.086422713504387 L -56.75531914893617 -18.159907570980696 L -46.43617021276597 -12.020858235299006 L -36.11702127659575 -30.74823645831193 L -25.797872340425556 -8.7449462396834 L -15.478723404255305 -34.89162719895963 L -5.159574468085111 -22.65187252283097 L 5.159574468085083 -52.450490907038464 L 15.478723404255334 -16.97312717312432 L 25.797872340425556 -0.037233929449342486 L 36.11702127659578 -27.291106474579866 L 46.436170212765944 -26.82273280791218 L 56.75531914893617 -1.8201933390976675 L 67.07446808510639 -13.711445347437508 L 77.39361702127655 -13.96475660541591 L 87.71276595744678 -3.5791569311681974 L 98.03191489361706 -13.312350278497034 L 108.35106382978728 -10.419058367725297 L 118.67021276595744 -1.8175749664028469 L 128.98936170212767 -2.1296156189529123 L 139.3085106382979 -2.495480375483688 L 149.62765957446805 -0.548997433046132 L 159.94680851063828 -1.8140439620036783 L 170.2659574468085 -1.8204599252683835 L 180.58510638297872 -0.6648972444279788 L 190.9042553191489 -0.005714132542088077 L 201.22340425531917 -0.06241999905987757 L 211.5425531914894 -0.092893115641463 L 221.8617021276596 -0.04827764796080553 L 232.18085106382978 -0.04730528156878796 L 242.5 -0.05977483662574694" fill="none" stroke="var(--stroke-color, currentColor)" stroke-width="1" stroke-linecap="round" stroke-linejoin="round" vector-effect="non-scaling-stroke" /></g><g transform="translate(0.00, -66.29) scale(1.0000) rotate(0.00)"><path d="M -242.5 -0.055221150951571873 L -232.18085106382978 -0.06894077317133704 L -221.86170212765958 -0.02659292879630625 L -211.54255319148936 -0.1244365379990992 L -201.22340425531917 -0.15828453650779573 L -190.90425531914894 -0.2585394213001919 L -180.58510638297872 -0.7452984965618957 L -170.2659574468085 -0.4029696653704606 L -159.9468085106383 -1.3339705244929527 L -149.62765957446808 -1.2312806813882478 L -139.3085106382979 -0.684912842058579 L -128.98936170212767 -1.3875088658384198 L -118.67021276595746 -1.2539260485272186 L -108.35106382978722 -1.4897056150310966 L -98.03191489361703 -6.011919934188849 L -87.7127659574468 -19.4215733605889 L -77.39361702127661 -7.563570692411809 L -67.07446808510636 -14.717515109748184 L -56.75531914893617 -6.8109363584744 L -46.43617021276597 -17.629380080723198 L -36.11702127659575 -27.367341402922833 L -25.797872340425556 -7.687994938566007 L -15.478723404255305 -27.528455811186138 L -5.159574468085111 -29.46668968217419 L 5.159574468085083 -42.51329654734583 L 15.478723404255334 -4.575812654934592 L 25.797872340425556 -14.542523396580105 L 36.11702127659578 -18.54920225084639 L 46.436170212765944 -7.899081560086341 L 56.75531914893617 -14.657298403608785 L 67.07446808510639 -20.07191004633949 L 77.39361702127655 -20.487269618870375 L 87.71276595744678 -7.272559927965458 L 98.03191489361706 -8.099428967482906 L 108.35106382978728 -1.4940964996439705 L 118.67021276595744 -8.176054030425 L 128.98936170212767 -3.145805940938731 L 139.3085106382979 -3.0221456580884327 L 149.62765957446805 -0.09812431411935833 L 159.94680851063828 -1.7912270444285436 L 170.2659574468085 -1.2787445543187972 L 180.58510638297872 -0.5361680964285142 L 190.9042553191489 -0.03050140835771258 L 201.22340425531917 -0.08451737520691115 L 211.5425531914894 -0.20365741087442396 L 221.8617021276596 -0.10497356136456791 L 232.18085106382978 -0.054808635735659576 L 242.5 -0.04066553061191634" fill="none" stroke="var(--stroke-color, currentColor)" stroke-width="1" stroke-linecap="round" stroke-linejoin="round" vector-effect="non-scaling-stroke" /></g><g transform="translate(0.00, -82.86) scale(1.0000) rotate(0.00)"><path d="M -242.5 -0.04727500882003958 L -232.18085106382978 -0.01802192242649403 L -221.86170212765958 -0.09789835634639964 L -211.54255319148936 -0.01896534806090622 L -201.22340425531917 -0.11265103957273706 L -190.90425531914894 -0.1952465442125377 L -180.58510638297872 -0.6618483068131815 L -170.2659574468085 -0.32451935742914706 L -159.9468085106383 -0.5579790494401065 L -149.62765957446808 -1.0281451554648675 L -139.3085106382979 -1.9897693582310918 L -128.98936170212767 -3.6683972256701765 L -118.67021276595746 -2.5775878692683682 L -108.35106382978722 -4.229903145949399 L -98.03191489361703 -1.1342299164962504 L -87.7127659574468 -17.32705093228068 L -77.39361702127661 -18.025365082191172 L -67.07446808510636 -6.28549121880191 L -56.75531914893617 -17.770010012614854 L -46.43617021276597 -24.53176087718459 L -36.11702127659575 -19.101498124405307 L -25.797872340425556 -1.6322692794205644 L -15.478723404255305 -8.425870292345518 L -5.159574468085111 -23.38917995894114 L 5.159574468085083 -10.143285393033336 L 15.478723404255334 -36.03382980634476 L 25.797872340425556 -22.96839933430858 L 36.11702127659578 -22.246929236212893 L 46.436170212765944 -3.425540662155277 L 56.75531914893617 -20.686091007535136 L 67.07446808510639 -20.414402208039263 L 77.39361702127655 -22.719906722795606 L 87.71276595744678 -10.713702810145637 L 98.03191489361706 -1.2596312733659283 L 108.35106382978728 -5.145977508737103 L 118.67021276595744 -9.918073605072493 L 128.98936170212767 -1.7759065518501986 L 139.3085106382979 -3.7786885725728983 L 149.62765957446805 -0.1123920760661374 L 159.94680851063828 -1.9223820864286563 L 170.2659574468085 -1.219953668052444 L 180.58510638297872 -0.5110414863861036 L 190.9042553191489 -0.17425901596186563 L 201.22340425531917 -0.11518927437039715 L 211.5425531914894 -0.10418074312051703 L 221.8617021276596 -0.06193217906173529 L 232.18085106382978 -0.03440127550536028 L 242.5 -0.01032057189895164" fill="none" stroke="var(--stroke-color, currentColor)" stroke-width="1" stroke-linecap="round" stroke-linejoin="round" vector-effect="non-scaling-stroke" /></g><g transform="translate(0.00, -99.43) scale(1.0000) rotate(0.00)"><path d="M -242.5 -0.017545883707389076 L -232.18085106382978 -0.04819399492859623 L -221.86170212765958 -0.15366698113986962 L -211.54255319148936 -0.048067666972681666 L -201.22340425531917 -0.2343841205227754 L -190.90425531914894 -0.26329555988717207 L -180.58510638297872 -0.7466702640446015 L -170.2659574468085 -0.6266409058030039 L -159.9468085106383 -0.13382744127107857 L -149.62765957446808 -1.3112495882310202 L -139.3085106382979 -3.2079187484231233 L -128.98936170212767 -5.19883577972355 L -118.67021276595746 -3.1936916216918827 L -108.35106382978722 -7.913499917701408 L -98.03191489361703 -11.454191210636441 L -87.7127659574468 -4.520157703963092 L -77.39361702127661 -13.911675860193116 L -67.07446808510636 -12.334378100641395 L -56.75531914893617 -21.129594338234693 L -46.43617021276597 -19.221342146740668 L -36.11702127659575 -12.022521262705313 L -25.797872340425556 -14.250495362660391 L -15.478723404255305 -19.5340640616501 L -5.159574468085111 -17.302761545976 L 5.159574468085083 -15.376346022041433 L 15.478723404255334 -46.59761310393764 L 25.797872340425556 -15.634032878142184 L 36.11702127659578 -28.673083200427893 L 46.436170212765944 -3.9725865671305196 L 56.75531914893617 -23.57595208952169 L 67.07446808510639 -24.267757183974503 L 77.39361702127655 -25.051331064629807 L 87.71276595744678 -10.295144223502549 L 98.03191489361706 -0.9926526923214755 L 108.35106382978728 -4.974533970190428 L 118.67021276595744 -6.32741403590821 L 128.98936170212767 -0.6741462005209164 L 139.3085106382979 -3.252610252191723 L 149.62765957446805 -0.09004031886945411 L 159.94680851063828 -1.5870122242600935 L 170.2659574468085 -1.316849662269009 L 180.58510638297872 -0.6561429312266543 L 190.9042553191489 -0.24432926654883955 L 201.22340425531917 -0.30682662258663174 L 211.5425531914894 -0.09151972300311102 L 221.8617021276596 -0.011932819957316905 L 232.18085106382978 -0.03280755956782862 L 242.5 -0.0036752928783660285" fill="none" stroke="var(--stroke-color, currentColor)" stroke-width="1" stroke-linecap="round" stroke-linejoin="round" vector-effect="non-scaling-stroke" /></g><g transform="translate(0.00, -116.00) scale(1.0000) rotate(0.00)"><path d="M -242.5 -0.004979133259488159 L -232.18085106382978 -0.06593121265236797 L -221.86170212765958 -0.12442887982739338 L -211.54255319148936 -0.09376892177080935 L -201.22340425531917 -0.24188561831644612 L -190.90425531914894 -0.27088872425724375 L -180.58510638297872 -0.8333496949594665 L -170.2659574468085 -1.0723990211328538 L -159.9468085106383 -0.4859721365272783 L -149.62765957446808 -1.8607485689608265 L -139.3085106382979 -3.084384450497344 L -128.98936170212767 -3.776356305641108 L -118.67021276595746 -1.0457175527862577 L -108.35106382978722 -9.142978115656808 L -98.03191489361703 -15.342403533047834 L -87.7127659574468 -6.379108724181914 L -77.39361702127661 -3.3428371240000354 L -67.07446808510636 -1.6521859073833836 L -56.75531914893617 -1.95569972382603 L -46.43617021276597 -1.7349515000743203 L -36.11702127659575 -6.228840189369314 L -25.797872340425556 -23.196338009476136 L -15.478723404255305 -31.77596434667865 L -5.159574468085111 -16.644601150283933 L 5.159574468085083 -16.55189729488912 L 15.478723404255334 -31.16106304649923 L 25.797872340425556 -0.32094137305510834 L 36.11702127659578 -25.34802727209656 L 46.436170212765944 -3.2183058591230975 L 56.75531914893617 -19.28394272295866 L 67.07446808510639 -23.306688104108886 L 77.39361702127655 -20.34642500361918 L 87.71276595744678 -0.9918095575060789 L 98.03191489361706 -7.152119450575792 L 108.35106382978728 -3.0092793673744205 L 118.67021276595744 -2.862939202269788 L 128.98936170212767 -2.367591220897771 L 139.3085106382979 -2.550360781995848 L 149.62765957446805 -0.08977413530187664 L 159.94680851063828 -1.2253154805591053 L 170.2659574468085 -1.1415429485070985 L 180.58510638297872 -0.6105320769767018 L 190.9042553191489 -0.2271331040208382 L 201.22340425531917 -0.3304272846655372 L 211.5425531914894 -0.1911464153470343 L 221.8617021276596 -0.04244378503496856 L 232.18085106382978 -0.04965035843249955 L 242.5 -0.020490483068849735" fill="none" stroke="var(--stroke-color, currentColor)" stroke-width="1" stroke-linecap="round" stroke-linejoin="round" vector-effect="non-scaling-stroke" /></g><g transform="translate(0.00, -132.57) scale(1.0000) rotate(0.00)"><path d="M -242.5 -0.01338364876660115 L -232.18085106382978 -0.023695207872690416 L -221.86170212765958 -0.049447526051221685 L -211.54255319148936 -0.0497980076475275 L -201.22340425531917 -0.16072046547794314 L -190.90425531914894 -0.1922136119947029 L -180.58510638297872 -0.6506669170437916 L -170.2659574468085 -1.1885980044943498 L -159.9468085106383 -0.5814941122261229 L -149.62765957446808 -2.1538608783880933 L -139.3085106382979 -3.2618620404760175 L -128.98936170212767 -3.2255185201206373 L -118.67021276595746 -0.6382524228597314 L -108.35106382978722 -8.039015094068551 L -98.03191489361703 -11.795518583913886 L -87.7127659574468 -11.132835536745056 L -77.39361702127661 -7.099752135491099 L -67.07446808510636 -9.910899446263667 L -56.75531914893617 -17.234579043781924 L -46.43617021276597 -14.860481926921034 L -36.11702127659575 -1.446130568703172 L -25.797872340425556 -11.00417159382818 L -15.478723404255305 -14.758462353993888 L -5.159574468085111 -7.595069111519617 L 5.159574468085083 -14.389480383552003 L 15.478723404255334 -15.141897015194917 L 25.797872340425556 -12.06193736672353 L 36.11702127659578 -20.176812910493467 L 46.436170212765944 -4.958624870843262 L 56.75531914893617 -4.938440743752318 L 67.07446808510639 -11.171300414147662 L 77.39361702127655 -6.576039002332126 L 87.71276595744678 -11.299413950002513 L 98.03191489361706 -10.990536805824478 L 108.35106382978728 -4.380607122104289 L 118.67021276595744 -2.796473494249903 L 128.98936170212767 -3.256803857466913 L 139.3085106382979 -2.5061779627361664 L 149.62765957446805 -0.31366047981169126 L 159.94680851063828 -1.5142586797509376 L 170.2659574468085 -1.3161208500407056 L 180.58510638297872 -0.46719073100734976 L 190.9042553191489 -0.11614653176958227 L 201.22340425531917 -0.20260979018893951 L 211.5425531914894 -0.18561308936307847 L 221.8617021276596 -0.04563073934779946 L 232.18085106382978 -0.05368528657457463 L 242.5 -0.029538316849338064" fill="none" stroke="var(--stroke-color, currentColor)" stroke-width="1" stroke-linecap="round" stroke-linejoin="round" vector-effect="non-scaling-stroke" /></g><g transform="translate(0.00, -149.14) scale(1.0000) rotate(0.00)"><path d="M -242.5 -0.015037486114880018 L -232.18085106382978 -0.027327755483383155 L -221.86170212765958 -0.008554249782398037 L -211.54255319148936 -0.071133307114745 L -201.22340425531917 -0.01005798965522322 L -190.90425531914894 -0.12348939143486747 L -180.58510638297872 -0.2515377017118791 L -170.2659574468085 -0.8274420067236249 L -159.9468085106383 -0.47678605210674485 L -149.62765957446808 -1.7701727037739206 L -139.3085106382979 -3.3490822712967074 L -128.98936170212767 -4.043131588755006 L -118.67021276595746 -1.0165041546532023 L -108.35106382978722 -7.587408465724262 L -98.03191489361703 -8.034627097635223 L -87.7127659574468 -12.084182004691137 L -77.39361702127661 -13.434339367294768 L -67.07446808510636 -13.880085133383542 L -56.75531914893617 -18.83172178785172 L -46.43617021276597 -15.797080772124064 L -36.11702127659575 -7.549106235635072 L -25.797872340425556 -10.410270271530676 L -15.478723404255305 -13.809697736304305 L -5.159574468085111 -10.796235093659805 L 5.159574468085083 -23.139812937119764 L 15.478723404255334 -14.95478656736836 L 25.797872340425556 -17.437949858316628 L 36.11702127659578 -21.763090990251417 L 46.436170212765944 -18.01035176414105 L 56.75531914893617 -14.391881456928546 L 67.07446808510639 -0.9507352375938722 L 77.39361702127655 -3.414878906664816 L 87.71276595744678 -14.773619080722423 L 98.03191489361706 -8.706523576322251 L 108.35106382978728 -6.032846873178353 L 118.67021276595744 -3.0231814554751506 L 128.98936170212767 -3.5064116012635567 L 139.3085106382979 -2.8898123876306157 L 149.62765957446805 -0.3013990924834482 L 159.94680851063828 -1.5162693592436467 L 170.2659574468085 -1.515807270653892 L 180.58510638297872 -0.4636702679534664 L 190.9042553191489 -0.1478728043876159 L 201.22340425531917 -0.06343619640399012 L 211.5425531914894 -0.09515385833365893 L 221.8617021276596 -0.03358297449831738 L 232.18085106382978 -0.03849742244951608 L 242.5 -0.017907085801860505" fill="none" stroke="var(--stroke-color, currentColor)" stroke-width="1" stroke-linecap="round" stroke-linejoin="round" vector-effect="non-scaling-stroke" /></g><g transform="translate(0.00, -165.71) scale(1.0000) rotate(0.00)"><path d="M -242.5 -0.011129671861512428 L -232.18085106382978 -0.048975342624898964 L -221.86170212765958 -0.006961245138842371 L -211.54255319148936 -0.14896817611111404 L -201.22340425531917 -0.15604556062413896 L -190.90425531914894 -0.15723215327839657 L -180.58510638297872 -0.11387257856216178 L -170.2659574468085 -0.09604335224876133 L -159.9468085106383 -0.19245859787248498 L -149.62765957446808 -0.9718273357605036 L -139.3085106382979 -2.1647957788746703 L -128.98936170212767 -3.7621917402722547 L -118.67021276595746 -0.9632059683192151 L -108.35106382978722 -7.015505335196778 L -98.03191489361703 -5.707615069764686 L -87.7127659574468 -8.511598658689126 L -77.39361702127661 -10.463592382566166 L -67.07446808510636 -7.462024061783222 L -56.75531914893617 -3.7304214478620867 L -46.43617021276597 -4.763698532263246 L -36.11702127659575 -11.633087967112884 L -25.797872340425556 -21.73967978847158 L -15.478723404255305 -26.849727320873754 L -5.159574468085111 -18.060165506165248 L 5.159574468085083 -26.260277794776872 L 15.478723404255334 -16.272870675256353 L 25.797872340425556 -18.914648107899847 L 36.11702127659578 -26.965051645526724 L 46.436170212765944 -29.554742263147077 L 56.75531914893617 -20.072861634955906 L 67.07446808510639 -0.10784564663817676 L 77.39361702127655 -1.0179185283163696 L 87.71276595744678 -6.782860818365447 L 98.03191489361706 -3.8626113895925913 L 108.35106382978728 -4.044464307909444 L 118.67021276595744 -2.230749191560318 L 128.98936170212767 -2.558209318646787 L 139.3085106382979 -2.8054417857501637 L 149.62765957446805 -1.705129733196236 L 159.94680851063828 -0.4342952603395196 L 170.2659574468085 -1.1727633009324607 L 180.58510638297872 -0.4935991675374521 L 190.9042553191489 -0.34306600704301315 L 201.22340425531917 -0.23705393333224042 L 211.5425531914894 -0.014727417566144449 L 221.8617021276596 -0.022253305528966393 L 232.18085106382978 -0.0009351258363287545 L 242.5 -0.0047104785161030125" fill="none" stroke="var(--stroke-color, currentColor)" stroke-width="1" stroke-linecap="round" stroke-linejoin="round" vector-effect="non-scaling-stroke" /></g><g transform="translate(0.00, -182.29) scale(1.0000) rotate(0.00)"><path d="M -242.5 -0.002353073325077758 L -232.18085106382978 -0.04859763571294687 L -221.86170212765958 -0.0066376793421742885 L -211.54255319148936 -0.15028525972188303 L -201.22340425531917 -0.24627243705055854 L -190.90425531914894 -0.24461609118441122 L -180.58510638297872 -0.29072652919708536 L -170.2659574468085 -0.5894542212621976 L -159.9468085106383 -0.3781789477404115 L -149.62765957446808 -0.43138518570727974 L -139.3085106382979 -0.22547418085863621 L -128.98936170212767 -1.9841188650789516 L -118.67021276595746 -0.7449234831771374 L -108.35106382978722 -4.594167552914041 L -98.03191489361703 -1.358512631151104 L -87.7127659574468 -0.43207682292698313 L -77.39361702127661 -0.5301263068854001 L -67.07446808510636 -2.844447475457249 L -56.75531914893617 -11.223180438161979 L -46.43617021276597 -2.6678063607798284 L -36.11702127659575 -16.143684544973393 L -25.797872340425556 -20.638239757074004 L -15.478723404255305 -20.69434657282552 L -5.159574468085111 -8.380336130943874 L 5.159574468085083 -14.690975466301882 L 15.478723404255334 -12.052225871705726 L 25.797872340425556 -14.085704518043595 L 36.11702127659578 -22.83562444586477 L 46.436170212765944 -24.85891320058463 L 56.75531914893617 -7.806372232504864 L 67.07446808510639 -11.08828400434188 L 77.39361702127655 -8.768761596426131 L 87.71276595744678 -3.4352821339981405 L 98.03191489361706 -2.1530108447525316 L 108.35106382978728 -1.1182929730172229 L 118.67021276595744 -1.102952251766348 L 128.98936170212767 -0.15014396274002612 L 139.3085106382979 -1.3166213326404068 L 149.62765957446805 -2.5810524204150767 L 159.94680851063828 -0.8895416093653878 L 170.2659574468085 -0.4358037018111224 L 180.58510638297872 -0.2997846069151944 L 190.9042553191489 -0.22040872094363306 L 201.22340425531917 -0.1533604364835579 L 211.5425531914894 -0.034387959590309415 L 221.8617021276596 -0.03420347184345436 L 232.18085106382978 -0.03975628039146577 L 242.5 -0.02257062991643883" fill="none" stroke="var(--stroke-color, currentColor)" stroke-width="1" stroke-linecap="round" stroke-linejoin="round" vector-effect="non-scaling-stroke" /></g><g transform="translate(0.00, -198.86) scale(1.0000) rotate(0.00)"><path d="M -242.5 -0.01893015094140189 L -232.18085106382978 -0.03572976659908953 L -221.86170212765958 -0.004799712242801243 L -211.54255319148936 -0.09956307296288659 L -201.22340425531917 -0.22541921089215222 L -190.90425531914894 -0.27073052205162507 L -180.58510638297872 -0.3228054557167739 L -170.2659574468085 -0.87671942253216 L -159.9468085106383 -0.978012648466919 L -149.62765957446808 -0.4023212884390215 L -139.3085106382979 -1.3884780873219598 L -128.98936170212767 -0.5494995580579308 L -118.67021276595746 -1.7522362046168856 L -108.35106382978722 -4.323812000912784 L -98.03191489361703 -0.5908727156025072 L -87.7127659574468 -7.611124819709115 L -77.39361702127661 -9.417037614925016 L -67.07446808510636 -8.985557804019301 L -56.75531914893617 -16.24450928918059 L -46.43617021276597 -3.8246417538008957 L -36.11702127659575 -18.980870699138602 L -25.797872340425556 -19.687227773511257 L -15.478723404255305 -14.58956612846894 L -5.159574468085111 -2.8950487738648936 L 5.159574468085083 -4.218235114150825 L 15.478723404255334 -4.770366419448187 L 25.797872340425556 -5.648689096688863 L 36.11702127659578 -11.818175526814603 L 46.436170212765944 -10.225550758166065 L 56.75531914893617 -8.580529529589127 L 67.07446808510639 -19.313636217946485 L 77.39361702127655 -13.86606342688434 L 87.71276595744678 -7.616980587841217 L 98.03191489361706 -2.970261817653403 L 108.35106382978728 -4.871591429043654 L 118.67021276595744 -0.9410553190536886 L 128.98936170212767 -2.592681268739869 L 139.3085106382979 -1.0014011679017063 L 149.62765957446805 -1.794129375907308 L 159.94680851063828 -1.3075987342054347 L 170.2659574468085 -0.18459840502356556 L 180.58510638297872 -0.03237341415754116 L 190.9042553191489 -0.08751983156518278 L 201.22340425531917 -0.060886958893173644 L 211.5425531914894 -0.0249469997103239 L 221.8617021276596 -0.037938900201518196 L 232.18085106382978 -0.04156382709534859 L 242.5 -0.020100493677405573" fill="none" stroke="var(--stroke-color, currentColor)" stroke-width="1" stroke-linecap="round" stroke-linejoin="round" vector-effect="non-scaling-stroke" /></g><g transform="translate(0.00, -215.43) scale(1.0000) rotate(0.00)"><path d="M -242.5 -0.020883693696454472 L -232.18085106382978 -0.020223662511861917 L -221.86170212765958 -0.011122423333904896 L -211.54255319148936 -0.03466887720842713 L -201.22340425531917 -0.11203228773166822 L -190.90425531914894 -0.20186203320495041 L -180.58510638297872 -0.24598553533844064 L -170.2659574468085 -0.7597341009880351 L -159.9468085106383 -1.2004908066361697 L -149.62765957446808 -0.5026552879391616 L -139.3085106382979 -2.057934918552391 L -128.98936170212767 -2.3079645669604822 L -118.67021276595746 -3.122428454719347 L -108.35106382978722 -5.536595947357236 L -98.03191489361703 -1.7964415008450298 L -87.7127659574468 -6.943890678256314 L -77.39361702127661 -9.40615623937442 L -67.07446808510636 -6.68788439590073 L -56.75531914893617 -13.578083132661227 L -46.43617021276597 -3.340892219856357 L -36.11702127659575 -16.749958554467103 L -25.797872340425556 -21.29341308626199 L -15.478723404255305 -17.251024410560753 L -5.159574468085111 -6.22076731804516 L 5.159574468085083 -17.483885826911656 L 15.478723404255334 -2.292911333817365 L 25.797872340425556 -2.7490171775081884 L 36.11702127659578 -7.070099792964236 L 46.436170212765944 -2.9136102049070387 L 56.75531914893617 -13.219294409607775 L 67.07446808510639 -14.900775114339506 L 77.39361702127655 -11.021883780851747 L 87.71276595744678 -7.624356073354598 L 98.03191489361706 -2.977938455877251 L 108.35106382978728 -5.12649768988534 L 118.67021276595744 -0.8738471555866153 L 128.98936170212767 -2.816686493084136 L 139.3085106382979 -1.6962669294038526 L 149.62765957446805 -0.430056393058234 L 159.94680851063828 -1.071226509698556 L 170.2659574468085 -0.6126643807605535 L 180.58510638297872 -0.3148699176155603 L 190.9042553191489 -0.27532743440227736 L 201.22340425531917 -0.18782421338861321 L 211.5425531914894 -0.05284443587815192 L 221.8617021276596 -0.007619177669667651 L 232.18085106382978 -0.005606382741131309 L 242.5 -0.002634389674916123" fill="none" stroke="var(--stroke-color, currentColor)" stroke-width="1" stroke-linecap="round" stroke-linejoin="round" vector-effect="non-scaling-stroke" /></g><g transform="translate(0.00, -232.00) scale(1.0000) rotate(0.00)"><path d="M -242.5 -0.007934307429915294 L -232.18085106382978 -0.0008599122528680431 L -221.86170212765958 -0.03165693552589354 L -211.54255319148936 -0.0026760499642351906 L -201.22340425531917 -0.03600398530860743 L -190.90425531914894 -0.05804479252684581 L -180.58510638297872 -0.21041580074750865 L -170.2659574468085 -0.5544699120293486 L -159.9468085106383 -1.012571711648874 L -149.62765957446808 -0.4418254520640574 L -139.3085106382979 -1.8103152991247726 L -128.98936170212767 -2.112437768470331 L -118.67021276595746 -2.2302306454262144 L -108.35106382978722 -3.7542039602904906 L -98.03191489361703 -2.3663589091278814 L -87.7127659574468 -3.8369380391938757 L -77.39361702127661 -5.407253711832517 L -67.07446808510636 -0.5887243748090877 L -56.75531914893617 -4.648727947443319 L -46.43617021276597 -1.740140284923028 L -36.11702127659575 -9.847159462545383 L -25.797872340425556 -16.10996506925525 L -15.478723404255305 -17.318686618618997 L -5.159574468085111 -6.275150738813827 L 5.159574468085083 -17.61844035439371 L 15.478723404255334 -7.448551928358387 L 25.797872340425556 -7.910721308561903 L 36.11702127659578 -9.83084351182666 L 46.436170212765944 -7.373713231227318 L 56.75531914893617 -0.3030221072690328 L 67.07446808510639 -0.9366188491203896 L 77.39361702127655 -3.6189358144958126 L 87.71276595744678 -5.20078720900374 L 98.03191489361706 -2.12193642115206 L 108.35106382978728 -3.5403606851949343 L 118.67021276595744 -0.1600299095585527 L 128.98936170212767 -0.4758256383898106 L 139.3085106382979 -0.3060648065933512 L 149.62765957446805 -0.1609404006054773 L 159.94680851063828 -0.7702077799066726 L 170.2659574468085 -0.717017264911846 L 180.58510638297872 -0.3655821676548572 L 190.9042553191489 -0.2375795226909594 L 201.22340425531917 -0.15776291075782345 L 211.5425531914894 -0.01945934778886257 L 221.8617021276596 -0.02993114025358207 L 232.18085106382978 -0.02926807976970556 L 242.5 -0.013677612350075351" fill="none" stroke="var(--stroke-color, currentColor)" stroke-width="1" stroke-linecap="round" stroke-linejoin="round" vector-effect="non-scaling-stroke" /></g></g></g>
</svg>